<mxfile host="app.diagrams.net" modified="2023-11-03T19:11:37.966Z" agent="Mozilla/5.0 (X11; Ubuntu; Linux x86_64; rv:109.0) Gecko/20100101 Firefox/119.0" etag="T7VRLStSxykqKoPCp2FG" version="22.0.8" type="device">
  <diagram id="C5RBs43oDa-KdzZeNtuy" name="Page-1">
    <mxGraphModel dx="2154" dy="940" grid="1" gridSize="10" guides="1" tooltips="1" connect="1" arrows="1" fold="1" page="1" pageScale="1" pageWidth="827" pageHeight="1169" math="0" shadow="0">
      <root>
        <mxCell id="WIyWlLk6GJQsqaUBKTNV-0" />
        <mxCell id="WIyWlLk6GJQsqaUBKTNV-1" parent="WIyWlLk6GJQsqaUBKTNV-0" />
        <mxCell id="zkfFHV4jXpPFQw0GAbJ--0" value="Person" style="swimlane;fontStyle=2;align=center;verticalAlign=top;childLayout=stackLayout;horizontal=1;startSize=26;horizontalStack=0;resizeParent=1;resizeLast=0;collapsible=1;marginBottom=0;rounded=0;shadow=0;strokeWidth=1;" parent="WIyWlLk6GJQsqaUBKTNV-1" vertex="1">
          <mxGeometry x="220" y="120" width="160" height="138" as="geometry">
            <mxRectangle x="230" y="140" width="160" height="26" as="alternateBounds" />
          </mxGeometry>
        </mxCell>
        <mxCell id="zkfFHV4jXpPFQw0GAbJ--1" value="Name" style="text;align=left;verticalAlign=top;spacingLeft=4;spacingRight=4;overflow=hidden;rotatable=0;points=[[0,0.5],[1,0.5]];portConstraint=eastwest;" parent="zkfFHV4jXpPFQw0GAbJ--0" vertex="1">
          <mxGeometry y="26" width="160" height="26" as="geometry" />
        </mxCell>
        <mxCell id="zkfFHV4jXpPFQw0GAbJ--2" value="Phone Number" style="text;align=left;verticalAlign=top;spacingLeft=4;spacingRight=4;overflow=hidden;rotatable=0;points=[[0,0.5],[1,0.5]];portConstraint=eastwest;rounded=0;shadow=0;html=0;" parent="zkfFHV4jXpPFQw0GAbJ--0" vertex="1">
          <mxGeometry y="52" width="160" height="26" as="geometry" />
        </mxCell>
        <mxCell id="zkfFHV4jXpPFQw0GAbJ--3" value="Email Address" style="text;align=left;verticalAlign=top;spacingLeft=4;spacingRight=4;overflow=hidden;rotatable=0;points=[[0,0.5],[1,0.5]];portConstraint=eastwest;rounded=0;shadow=0;html=0;" parent="zkfFHV4jXpPFQw0GAbJ--0" vertex="1">
          <mxGeometry y="78" width="160" height="26" as="geometry" />
        </mxCell>
        <mxCell id="zkfFHV4jXpPFQw0GAbJ--4" value="" style="line;html=1;strokeWidth=1;align=left;verticalAlign=middle;spacingTop=-1;spacingLeft=3;spacingRight=3;rotatable=0;labelPosition=right;points=[];portConstraint=eastwest;" parent="zkfFHV4jXpPFQw0GAbJ--0" vertex="1">
          <mxGeometry y="104" width="160" height="8" as="geometry" />
        </mxCell>
        <mxCell id="zkfFHV4jXpPFQw0GAbJ--5" value="Purchase Parking Pass" style="text;align=left;verticalAlign=top;spacingLeft=4;spacingRight=4;overflow=hidden;rotatable=0;points=[[0,0.5],[1,0.5]];portConstraint=eastwest;" parent="zkfFHV4jXpPFQw0GAbJ--0" vertex="1">
          <mxGeometry y="112" width="160" height="26" as="geometry" />
        </mxCell>
        <mxCell id="zkfFHV4jXpPFQw0GAbJ--6" value="Student" style="swimlane;fontStyle=0;align=center;verticalAlign=top;childLayout=stackLayout;horizontal=1;startSize=26;horizontalStack=0;resizeParent=1;resizeLast=0;collapsible=1;marginBottom=0;rounded=0;shadow=0;strokeWidth=1;" parent="WIyWlLk6GJQsqaUBKTNV-1" vertex="1">
          <mxGeometry x="120" y="360" width="160" height="138" as="geometry">
            <mxRectangle x="130" y="380" width="160" height="26" as="alternateBounds" />
          </mxGeometry>
        </mxCell>
        <mxCell id="zkfFHV4jXpPFQw0GAbJ--7" value="Student Number" style="text;align=left;verticalAlign=top;spacingLeft=4;spacingRight=4;overflow=hidden;rotatable=0;points=[[0,0.5],[1,0.5]];portConstraint=eastwest;" parent="zkfFHV4jXpPFQw0GAbJ--6" vertex="1">
          <mxGeometry y="26" width="160" height="26" as="geometry" />
        </mxCell>
        <mxCell id="zkfFHV4jXpPFQw0GAbJ--8" value="Average Mark" style="text;align=left;verticalAlign=top;spacingLeft=4;spacingRight=4;overflow=hidden;rotatable=0;points=[[0,0.5],[1,0.5]];portConstraint=eastwest;rounded=0;shadow=0;html=0;" parent="zkfFHV4jXpPFQw0GAbJ--6" vertex="1">
          <mxGeometry y="52" width="160" height="26" as="geometry" />
        </mxCell>
        <mxCell id="zkfFHV4jXpPFQw0GAbJ--9" value="" style="line;html=1;strokeWidth=1;align=left;verticalAlign=middle;spacingTop=-1;spacingLeft=3;spacingRight=3;rotatable=0;labelPosition=right;points=[];portConstraint=eastwest;" parent="zkfFHV4jXpPFQw0GAbJ--6" vertex="1">
          <mxGeometry y="78" width="160" height="8" as="geometry" />
        </mxCell>
        <mxCell id="zkfFHV4jXpPFQw0GAbJ--10" value="Is Eligible To Enroll" style="text;align=left;verticalAlign=top;spacingLeft=4;spacingRight=4;overflow=hidden;rotatable=0;points=[[0,0.5],[1,0.5]];portConstraint=eastwest;fontStyle=4" parent="zkfFHV4jXpPFQw0GAbJ--6" vertex="1">
          <mxGeometry y="86" width="160" height="26" as="geometry" />
        </mxCell>
        <mxCell id="zkfFHV4jXpPFQw0GAbJ--11" value="Get Seminars Taken" style="text;align=left;verticalAlign=top;spacingLeft=4;spacingRight=4;overflow=hidden;rotatable=0;points=[[0,0.5],[1,0.5]];portConstraint=eastwest;" parent="zkfFHV4jXpPFQw0GAbJ--6" vertex="1">
          <mxGeometry y="112" width="160" height="26" as="geometry" />
        </mxCell>
        <mxCell id="zkfFHV4jXpPFQw0GAbJ--12" value="" style="endArrow=block;endSize=10;endFill=0;shadow=0;strokeWidth=1;rounded=0;edgeStyle=elbowEdgeStyle;elbow=vertical;" parent="WIyWlLk6GJQsqaUBKTNV-1" source="zkfFHV4jXpPFQw0GAbJ--6" target="zkfFHV4jXpPFQw0GAbJ--0" edge="1">
          <mxGeometry width="160" relative="1" as="geometry">
            <mxPoint x="200" y="203" as="sourcePoint" />
            <mxPoint x="200" y="203" as="targetPoint" />
          </mxGeometry>
        </mxCell>
        <mxCell id="zkfFHV4jXpPFQw0GAbJ--13" value="Professor" style="swimlane;fontStyle=0;align=center;verticalAlign=top;childLayout=stackLayout;horizontal=1;startSize=26;horizontalStack=0;resizeParent=1;resizeLast=0;collapsible=1;marginBottom=0;rounded=0;shadow=0;strokeWidth=1;" parent="WIyWlLk6GJQsqaUBKTNV-1" vertex="1">
          <mxGeometry x="330" y="360" width="160" height="70" as="geometry">
            <mxRectangle x="340" y="380" width="170" height="26" as="alternateBounds" />
          </mxGeometry>
        </mxCell>
        <mxCell id="zkfFHV4jXpPFQw0GAbJ--14" value="Salary" style="text;align=left;verticalAlign=top;spacingLeft=4;spacingRight=4;overflow=hidden;rotatable=0;points=[[0,0.5],[1,0.5]];portConstraint=eastwest;" parent="zkfFHV4jXpPFQw0GAbJ--13" vertex="1">
          <mxGeometry y="26" width="160" height="26" as="geometry" />
        </mxCell>
        <mxCell id="zkfFHV4jXpPFQw0GAbJ--15" value="" style="line;html=1;strokeWidth=1;align=left;verticalAlign=middle;spacingTop=-1;spacingLeft=3;spacingRight=3;rotatable=0;labelPosition=right;points=[];portConstraint=eastwest;" parent="zkfFHV4jXpPFQw0GAbJ--13" vertex="1">
          <mxGeometry y="52" width="160" height="8" as="geometry" />
        </mxCell>
        <mxCell id="zkfFHV4jXpPFQw0GAbJ--16" value="" style="endArrow=block;endSize=10;endFill=0;shadow=0;strokeWidth=1;rounded=0;edgeStyle=elbowEdgeStyle;elbow=vertical;" parent="WIyWlLk6GJQsqaUBKTNV-1" source="zkfFHV4jXpPFQw0GAbJ--13" target="zkfFHV4jXpPFQw0GAbJ--0" edge="1">
          <mxGeometry width="160" relative="1" as="geometry">
            <mxPoint x="210" y="373" as="sourcePoint" />
            <mxPoint x="310" y="271" as="targetPoint" />
          </mxGeometry>
        </mxCell>
        <mxCell id="zkfFHV4jXpPFQw0GAbJ--17" value="Address" style="swimlane;fontStyle=0;align=center;verticalAlign=top;childLayout=stackLayout;horizontal=1;startSize=26;horizontalStack=0;resizeParent=1;resizeLast=0;collapsible=1;marginBottom=0;rounded=0;shadow=0;strokeWidth=1;" parent="WIyWlLk6GJQsqaUBKTNV-1" vertex="1">
          <mxGeometry x="508" y="120" width="160" height="216" as="geometry">
            <mxRectangle x="550" y="140" width="160" height="26" as="alternateBounds" />
          </mxGeometry>
        </mxCell>
        <mxCell id="zkfFHV4jXpPFQw0GAbJ--18" value="Street" style="text;align=left;verticalAlign=top;spacingLeft=4;spacingRight=4;overflow=hidden;rotatable=0;points=[[0,0.5],[1,0.5]];portConstraint=eastwest;" parent="zkfFHV4jXpPFQw0GAbJ--17" vertex="1">
          <mxGeometry y="26" width="160" height="26" as="geometry" />
        </mxCell>
        <mxCell id="zkfFHV4jXpPFQw0GAbJ--19" value="City" style="text;align=left;verticalAlign=top;spacingLeft=4;spacingRight=4;overflow=hidden;rotatable=0;points=[[0,0.5],[1,0.5]];portConstraint=eastwest;rounded=0;shadow=0;html=0;" parent="zkfFHV4jXpPFQw0GAbJ--17" vertex="1">
          <mxGeometry y="52" width="160" height="26" as="geometry" />
        </mxCell>
        <mxCell id="zkfFHV4jXpPFQw0GAbJ--20" value="State" style="text;align=left;verticalAlign=top;spacingLeft=4;spacingRight=4;overflow=hidden;rotatable=0;points=[[0,0.5],[1,0.5]];portConstraint=eastwest;rounded=0;shadow=0;html=0;" parent="zkfFHV4jXpPFQw0GAbJ--17" vertex="1">
          <mxGeometry y="78" width="160" height="26" as="geometry" />
        </mxCell>
        <mxCell id="zkfFHV4jXpPFQw0GAbJ--21" value="Postal Code" style="text;align=left;verticalAlign=top;spacingLeft=4;spacingRight=4;overflow=hidden;rotatable=0;points=[[0,0.5],[1,0.5]];portConstraint=eastwest;rounded=0;shadow=0;html=0;" parent="zkfFHV4jXpPFQw0GAbJ--17" vertex="1">
          <mxGeometry y="104" width="160" height="26" as="geometry" />
        </mxCell>
        <mxCell id="zkfFHV4jXpPFQw0GAbJ--22" value="Country" style="text;align=left;verticalAlign=top;spacingLeft=4;spacingRight=4;overflow=hidden;rotatable=0;points=[[0,0.5],[1,0.5]];portConstraint=eastwest;rounded=0;shadow=0;html=0;" parent="zkfFHV4jXpPFQw0GAbJ--17" vertex="1">
          <mxGeometry y="130" width="160" height="26" as="geometry" />
        </mxCell>
        <mxCell id="zkfFHV4jXpPFQw0GAbJ--23" value="" style="line;html=1;strokeWidth=1;align=left;verticalAlign=middle;spacingTop=-1;spacingLeft=3;spacingRight=3;rotatable=0;labelPosition=right;points=[];portConstraint=eastwest;" parent="zkfFHV4jXpPFQw0GAbJ--17" vertex="1">
          <mxGeometry y="156" width="160" height="8" as="geometry" />
        </mxCell>
        <mxCell id="zkfFHV4jXpPFQw0GAbJ--24" value="Validate" style="text;align=left;verticalAlign=top;spacingLeft=4;spacingRight=4;overflow=hidden;rotatable=0;points=[[0,0.5],[1,0.5]];portConstraint=eastwest;" parent="zkfFHV4jXpPFQw0GAbJ--17" vertex="1">
          <mxGeometry y="164" width="160" height="26" as="geometry" />
        </mxCell>
        <mxCell id="zkfFHV4jXpPFQw0GAbJ--25" value="Output As Label" style="text;align=left;verticalAlign=top;spacingLeft=4;spacingRight=4;overflow=hidden;rotatable=0;points=[[0,0.5],[1,0.5]];portConstraint=eastwest;" parent="zkfFHV4jXpPFQw0GAbJ--17" vertex="1">
          <mxGeometry y="190" width="160" height="26" as="geometry" />
        </mxCell>
        <mxCell id="zkfFHV4jXpPFQw0GAbJ--26" value="" style="endArrow=open;shadow=0;strokeWidth=1;rounded=0;endFill=1;edgeStyle=elbowEdgeStyle;elbow=vertical;" parent="WIyWlLk6GJQsqaUBKTNV-1" source="zkfFHV4jXpPFQw0GAbJ--0" target="zkfFHV4jXpPFQw0GAbJ--17" edge="1">
          <mxGeometry x="0.5" y="41" relative="1" as="geometry">
            <mxPoint x="380" y="192" as="sourcePoint" />
            <mxPoint x="540" y="192" as="targetPoint" />
            <mxPoint x="-40" y="32" as="offset" />
          </mxGeometry>
        </mxCell>
        <mxCell id="zkfFHV4jXpPFQw0GAbJ--27" value="0..1" style="resizable=0;align=left;verticalAlign=bottom;labelBackgroundColor=none;fontSize=12;" parent="zkfFHV4jXpPFQw0GAbJ--26" connectable="0" vertex="1">
          <mxGeometry x="-1" relative="1" as="geometry">
            <mxPoint y="4" as="offset" />
          </mxGeometry>
        </mxCell>
        <mxCell id="zkfFHV4jXpPFQw0GAbJ--28" value="1" style="resizable=0;align=right;verticalAlign=bottom;labelBackgroundColor=none;fontSize=12;" parent="zkfFHV4jXpPFQw0GAbJ--26" connectable="0" vertex="1">
          <mxGeometry x="1" relative="1" as="geometry">
            <mxPoint x="-7" y="4" as="offset" />
          </mxGeometry>
        </mxCell>
        <mxCell id="zkfFHV4jXpPFQw0GAbJ--29" value="lives at" style="text;html=1;resizable=0;points=[];;align=center;verticalAlign=middle;labelBackgroundColor=none;rounded=0;shadow=0;strokeWidth=1;fontSize=12;" parent="zkfFHV4jXpPFQw0GAbJ--26" vertex="1" connectable="0">
          <mxGeometry x="0.5" y="49" relative="1" as="geometry">
            <mxPoint x="-38" y="40" as="offset" />
          </mxGeometry>
        </mxCell>
        <UserObject label="" plantUmlData="{&#xa;  &quot;data&quot;: &quot;@startuml\n\nclass JuegoBuscaminas {\n  - tablero: Tablero\n  - cronometro: Cronometro\n  - contadorMinas: ContadorMinas\n  + jugarCasilla(x: int, y: int)\n  + marcarCasilla(x: int, y: int)\n}\n\nclass Tablero {\n  - casillas: Casilla[][]\n  - ancho: int\n  - alto: int\n  + revelarCasilla(x: int, y: int)\n}\n\nclass Casilla {\n  - tipo: TipoCasilla\n  - valor: int\n  - descubierta: bool\n  - marcada: bool\n}\n\nclass TipoCasilla {\n  - Mina\n  - Numero\n  - Vacia\n}\n\nclass Cronometro {\n  + iniciar()\n  + detener()\n  + obtenerTiempoTranscurrido()\n}\n\nclass ContadorMinas {\n  - minasTotales: int\n  - minasDescubiertas: int\n  + restarMinaDescubierta()\n}\n\nJuegoBuscaminas --&gt; Tablero\nJuegoBuscaminas --&gt; Cronometro\nJuegoBuscaminas --&gt; ContadorMinas\nTablero --&gt; Casilla\nTablero --&gt; TipoCasilla\nContadorMinas --&gt; Cronometro\n\n@enduml\n&quot;,&#xa;  &quot;format&quot;: &quot;svg&quot;&#xa;}" id="IKGjknTljFA5LxFjr2B9-0">
          <mxCell style="shape=image;noLabel=1;verticalAlign=top;aspect=fixed;imageAspect=0;image=data:image/svg+xml,PD94bWwgdmVyc2lvbj0iMS4wIiBlbmNvZGluZz0idXMtYXNjaWkiIHN0YW5kYWxvbmU9Im5vIj8+PHN2ZyB4bWxucz0iaHR0cDovL3d3dy53My5vcmcvMjAwMC9zdmciIHhtbG5zOnhsaW5rPSJodHRwOi8vd3d3LnczLm9yZy8xOTk5L3hsaW5rIiBjb250ZW50U3R5bGVUeXBlPSJ0ZXh0L2NzcyIgaGVpZ2h0PSI0NzJweCIgcHJlc2VydmVBc3BlY3RSYXRpbz0ibm9uZSIgc3R5bGU9IndpZHRoOjYzMnB4O2hlaWdodDo0NzJweDtiYWNrZ3JvdW5kOiNGRkZGRkY7IiB2ZXJzaW9uPSIxLjEiIHZpZXdCb3g9IjAgMCA2MzIgNDcyIiB3aWR0aD0iNjMycHgiIHpvb21BbmRQYW49Im1hZ25pZnkiPjxkZWZzLz48Zz48IS0tY2xhc3MgSnVlZ29CdXNjYW1pbmFzLS0+PGcgaWQ9ImVsZW1fSnVlZ29CdXNjYW1pbmFzIj48cmVjdCBjb2RlTGluZT0iMSIgZmlsbD0iI0YxRjFGMSIgaGVpZ2h0PSIxMjIuOTIxOSIgaWQ9Ikp1ZWdvQnVzY2FtaW5hcyIgcng9IjIuNSIgcnk9IjIuNSIgc3R5bGU9InN0cm9rZTojMTgxODE4O3N0cm9rZS13aWR0aDowLjU7IiB3aWR0aD0iMjMyIiB4PSIyNjYuNSIgeT0iNyIvPjxlbGxpcHNlIGN4PSIzMjQuNzUiIGN5PSIyMyIgZmlsbD0iI0FERDFCMiIgcng9IjExIiByeT0iMTEiIHN0eWxlPSJzdHJva2U6IzE4MTgxODtzdHJva2Utd2lkdGg6MS4wOyIvPjxwYXRoIGQ9Ik0zMjIuMzc1LDI3LjI1IEwzMjIuMzc1LDI5IEwzMjcuMzEyNSwyOSBMMzI3LjMxMjUsMjcuMjUgTDMyMi4zNzUsMjcuMjUgWiBNMzIzLjA2MjUsMjcuOTM3NSBRMzIzLjA2MjUsMjcuOTM3NSAzMjMuMDYyNSwxOC43NSBMMzIxLjMxMjUsMTguNzUgUTMyMS4zMTI1LDE4Ljc1IDMyMS4zMTI1LDI3LjkzNzUgTDMyMy4wNjI1LDI3LjkzNzUgWiBNMzI2LjYyNSwyNy45Mzc1IEwzMjguMzc1LDI3LjkzNzUgUTMyOC4zNzUsMjcuOTM3NSAzMjguMzc1LDI1LjEyNSBMMzI2LjYyNSwyNS4xMjUgUTMyNi42MjUsMjUuMTI1IDMyNi42MjUsMjcuOTM3NSBaIE0zMjYuNjI1LDE4Ljc1IFEzMjYuNjI1LDE4Ljc1IDMyNi42MjUsMjEuNTYyNSBMMzI4LjM3NSwyMS41NjI1IFEzMjguMzc1LDIxLjU2MjUgMzI4LjM3NSwxOC43NSBMMzI2LjYyNSwxOC43NSBaIE0zMjIuMzc1LDE5LjQzNzUgTDMyNy4zMTI1LDE5LjQzNzUgTDMyNy4zMTI1LDE3LjY4NzUgTDMyMi4zNzUsMTcuNjg3NSBMMzIyLjM3NSwxOS40Mzc1IFogIiBmaWxsPSIjMDAwMDAwIi8+PHRleHQgZmlsbD0iIzAwMDAwMCIgZm9udC1mYW1pbHk9InNhbnMtc2VyaWYiIGZvbnQtc2l6ZT0iMTQiIGxlbmd0aEFkanVzdD0ic3BhY2luZyIgdGV4dExlbmd0aD0iMTA3IiB4PSIzNDUuMjUiIHk9IjI4Ljc0MjIiPkp1ZWdvQnVzY2FtaW5hczwvdGV4dD48bGluZSBzdHlsZT0ic3Ryb2tlOiMxODE4MTg7c3Ryb2tlLXdpZHRoOjAuNTsiIHgxPSIyNjcuNSIgeDI9IjQ5Ny41IiB5MT0iMzkiIHkyPSIzOSIvPjxyZWN0IGZpbGw9Im5vbmUiIGhlaWdodD0iNiIgc3R5bGU9InN0cm9rZTojQzgyOTMwO3N0cm9rZS13aWR0aDoxLjA7IiB3aWR0aD0iNiIgeD0iMjc0LjUiIHk9IjQ4Ljk5MjIiLz48dGV4dCBmaWxsPSIjMDAwMDAwIiBmb250LWZhbWlseT0ic2Fucy1zZXJpZiIgZm9udC1zaXplPSIxNCIgbGVuZ3RoQWRqdXN0PSJzcGFjaW5nIiB0ZXh0TGVuZ3RoPSIxMTIiIHg9IjI4Ni41IiB5PSI1Ni4yMzQ0Ij50YWJsZXJvOiBUYWJsZXJvPC90ZXh0PjxyZWN0IGZpbGw9Im5vbmUiIGhlaWdodD0iNiIgc3R5bGU9InN0cm9rZTojQzgyOTMwO3N0cm9rZS13aWR0aDoxLjA7IiB3aWR0aD0iNiIgeD0iMjc0LjUiIHk9IjYzLjk3NjYiLz48dGV4dCBmaWxsPSIjMDAwMDAwIiBmb250LWZhbWlseT0ic2Fucy1zZXJpZiIgZm9udC1zaXplPSIxNCIgbGVuZ3RoQWRqdXN0PSJzcGFjaW5nIiB0ZXh0TGVuZ3RoPSIxNTYiIHg9IjI4Ni41IiB5PSI3MS4yMTg4Ij5jcm9ub21ldHJvOiBDcm9ub21ldHJvPC90ZXh0PjxyZWN0IGZpbGw9Im5vbmUiIGhlaWdodD0iNiIgc3R5bGU9InN0cm9rZTojQzgyOTMwO3N0cm9rZS13aWR0aDoxLjA7IiB3aWR0aD0iNiIgeD0iMjc0LjUiIHk9Ijc4Ljk2MDkiLz48dGV4dCBmaWxsPSIjMDAwMDAwIiBmb250LWZhbWlseT0ic2Fucy1zZXJpZiIgZm9udC1zaXplPSIxNCIgbGVuZ3RoQWRqdXN0PSJzcGFjaW5nIiB0ZXh0TGVuZ3RoPSIxOTYiIHg9IjI4Ni41IiB5PSI4Ni4yMDMxIj5jb250YWRvck1pbmFzOiBDb250YWRvck1pbmFzPC90ZXh0PjxsaW5lIHN0eWxlPSJzdHJva2U6IzE4MTgxODtzdHJva2Utd2lkdGg6MC41OyIgeDE9IjI2Ny41IiB4Mj0iNDk3LjUiIHkxPSI5MS45NTMxIiB5Mj0iOTEuOTUzMSIvPjxlbGxpcHNlIGN4PSIyNzcuNSIgY3k9IjEwNC45NDUzIiBmaWxsPSIjODRCRTg0IiByeD0iMyIgcnk9IjMiIHN0eWxlPSJzdHJva2U6IzAzODA0ODtzdHJva2Utd2lkdGg6MS4wOyIvPjx0ZXh0IGZpbGw9IiMwMDAwMDAiIGZvbnQtZmFtaWx5PSJzYW5zLXNlcmlmIiBmb250LXNpemU9IjE0IiBsZW5ndGhBZGp1c3Q9InNwYWNpbmciIHRleHRMZW5ndGg9IjE5OCIgeD0iMjg2LjUiIHk9IjEwOS4xODc1Ij5qdWdhckNhc2lsbGEoeDogaW50LCB5OiBpbnQpPC90ZXh0PjxlbGxpcHNlIGN4PSIyNzcuNSIgY3k9IjExOS45Mjk3IiBmaWxsPSIjODRCRTg0IiByeD0iMyIgcnk9IjMiIHN0eWxlPSJzdHJva2U6IzAzODA0ODtzdHJva2Utd2lkdGg6MS4wOyIvPjx0ZXh0IGZpbGw9IiMwMDAwMDAiIGZvbnQtZmFtaWx5PSJzYW5zLXNlcmlmIiBmb250LXNpemU9IjE0IiBsZW5ndGhBZGp1c3Q9InNwYWNpbmciIHRleHRMZW5ndGg9IjIwNiIgeD0iMjg2LjUiIHk9IjEyNC4xNzE5Ij5tYXJjYXJDYXNpbGxhKHg6IGludCwgeTogaW50KTwvdGV4dD48L2c+PCEtLWNsYXNzIFRhYmxlcm8tLT48ZyBpZD0iZWxlbV9UYWJsZXJvIj48cmVjdCBjb2RlTGluZT0iOSIgZmlsbD0iI0YxRjFGMSIgaGVpZ2h0PSIxMDcuOTM3NSIgaWQ9IlRhYmxlcm8iIHJ4PSIyLjUiIHJ5PSIyLjUiIHN0eWxlPSJzdHJva2U6IzE4MTgxODtzdHJva2Utd2lkdGg6MC41OyIgd2lkdGg9IjIzOCIgeD0iOTEuNSIgeT0iMTkwIi8+PGVsbGlwc2UgY3g9IjE4MS43NSIgY3k9IjIwNiIgZmlsbD0iI0FERDFCMiIgcng9IjExIiByeT0iMTEiIHN0eWxlPSJzdHJva2U6IzE4MTgxODtzdHJva2Utd2lkdGg6MS4wOyIvPjxwYXRoIGQ9Ik0xNzkuMzc1LDIxMC4yNSBMMTc5LjM3NSwyMTIgTDE4NC4zMTI1LDIxMiBMMTg0LjMxMjUsMjEwLjI1IEwxNzkuMzc1LDIxMC4yNSBaIE0xODAuMDYyNSwyMTAuOTM3NSBRMTgwLjA2MjUsMjEwLjkzNzUgMTgwLjA2MjUsMjAxLjc1IEwxNzguMzEyNSwyMDEuNzUgUTE3OC4zMTI1LDIwMS43NSAxNzguMzEyNSwyMTAuOTM3NSBMMTgwLjA2MjUsMjEwLjkzNzUgWiBNMTgzLjYyNSwyMTAuOTM3NSBMMTg1LjM3NSwyMTAuOTM3NSBRMTg1LjM3NSwyMTAuOTM3NSAxODUuMzc1LDIwOC4xMjUgTDE4My42MjUsMjA4LjEyNSBRMTgzLjYyNSwyMDguMTI1IDE4My42MjUsMjEwLjkzNzUgWiBNMTgzLjYyNSwyMDEuNzUgUTE4My42MjUsMjAxLjc1IDE4My42MjUsMjA0LjU2MjUgTDE4NS4zNzUsMjA0LjU2MjUgUTE4NS4zNzUsMjA0LjU2MjUgMTg1LjM3NSwyMDEuNzUgTDE4My42MjUsMjAxLjc1IFogTTE3OS4zNzUsMjAyLjQzNzUgTDE4NC4zMTI1LDIwMi40Mzc1IEwxODQuMzEyNSwyMDAuNjg3NSBMMTc5LjM3NSwyMDAuNjg3NSBMMTc5LjM3NSwyMDIuNDM3NSBaICIgZmlsbD0iIzAwMDAwMCIvPjx0ZXh0IGZpbGw9IiMwMDAwMDAiIGZvbnQtZmFtaWx5PSJzYW5zLXNlcmlmIiBmb250LXNpemU9IjE0IiBsZW5ndGhBZGp1c3Q9InNwYWNpbmciIHRleHRMZW5ndGg9IjQ5IiB4PSIyMDIuMjUiIHk9IjIxMS43NDIyIj5UYWJsZXJvPC90ZXh0PjxsaW5lIHN0eWxlPSJzdHJva2U6IzE4MTgxODtzdHJva2Utd2lkdGg6MC41OyIgeDE9IjkyLjUiIHgyPSIzMjguNSIgeTE9IjIyMiIgeTI9IjIyMiIvPjxyZWN0IGZpbGw9Im5vbmUiIGhlaWdodD0iNiIgc3R5bGU9InN0cm9rZTojQzgyOTMwO3N0cm9rZS13aWR0aDoxLjA7IiB3aWR0aD0iNiIgeD0iOTkuNSIgeT0iMjMxLjk5MjIiLz48dGV4dCBmaWxsPSIjMDAwMDAwIiBmb250LWZhbWlseT0ic2Fucy1zZXJpZiIgZm9udC1zaXplPSIxNCIgbGVuZ3RoQWRqdXN0PSJzcGFjaW5nIiB0ZXh0TGVuZ3RoPSIxNDciIHg9IjExMS41IiB5PSIyMzkuMjM0NCI+Y2FzaWxsYXM6IENhc2lsbGFbXVtdPC90ZXh0PjxyZWN0IGZpbGw9Im5vbmUiIGhlaWdodD0iNiIgc3R5bGU9InN0cm9rZTojQzgyOTMwO3N0cm9rZS13aWR0aDoxLjA7IiB3aWR0aD0iNiIgeD0iOTkuNSIgeT0iMjQ2Ljk3NjYiLz48dGV4dCBmaWxsPSIjMDAwMDAwIiBmb250LWZhbWlseT0ic2Fucy1zZXJpZiIgZm9udC1zaXplPSIxNCIgbGVuZ3RoQWRqdXN0PSJzcGFjaW5nIiB0ZXh0TGVuZ3RoPSI3MCIgeD0iMTExLjUiIHk9IjI1NC4yMTg4Ij5hbmNobzogaW50PC90ZXh0PjxyZWN0IGZpbGw9Im5vbmUiIGhlaWdodD0iNiIgc3R5bGU9InN0cm9rZTojQzgyOTMwO3N0cm9rZS13aWR0aDoxLjA7IiB3aWR0aD0iNiIgeD0iOTkuNSIgeT0iMjYxLjk2MDkiLz48dGV4dCBmaWxsPSIjMDAwMDAwIiBmb250LWZhbWlseT0ic2Fucy1zZXJpZiIgZm9udC1zaXplPSIxNCIgbGVuZ3RoQWRqdXN0PSJzcGFjaW5nIiB0ZXh0TGVuZ3RoPSI2MyIgeD0iMTExLjUiIHk9IjI2OS4yMDMxIj5hbHRvOiBpbnQ8L3RleHQ+PGxpbmUgc3R5bGU9InN0cm9rZTojMTgxODE4O3N0cm9rZS13aWR0aDowLjU7IiB4MT0iOTIuNSIgeDI9IjMyOC41IiB5MT0iMjc0Ljk1MzEiIHkyPSIyNzQuOTUzMSIvPjxlbGxpcHNlIGN4PSIxMDIuNSIgY3k9IjI4Ny45NDUzIiBmaWxsPSIjODRCRTg0IiByeD0iMyIgcnk9IjMiIHN0eWxlPSJzdHJva2U6IzAzODA0ODtzdHJva2Utd2lkdGg6MS4wOyIvPjx0ZXh0IGZpbGw9IiMwMDAwMDAiIGZvbnQtZmFtaWx5PSJzYW5zLXNlcmlmIiBmb250LXNpemU9IjE0IiBsZW5ndGhBZGp1c3Q9InNwYWNpbmciIHRleHRMZW5ndGg9IjIxMiIgeD0iMTExLjUiIHk9IjI5Mi4xODc1Ij5yZXZlbGFyQ2FzaWxsYSh4OiBpbnQsIHk6IGludCk8L3RleHQ+PC9nPjwhLS1jbGFzcyBDYXNpbGxhLS0+PGcgaWQ9ImVsZW1fQ2FzaWxsYSI+PHJlY3QgY29kZUxpbmU9IjE2IiBmaWxsPSIjRjFGMUYxIiBoZWlnaHQ9IjEwNy45Mzc1IiBpZD0iQ2FzaWxsYSIgcng9IjIuNSIgcnk9IjIuNSIgc3R5bGU9InN0cm9rZTojMTgxODE4O3N0cm9rZS13aWR0aDowLjU7IiB3aWR0aD0iMTQ1IiB4PSI3IiB5PSIzNTgiLz48ZWxsaXBzZSBjeD0iNTAuOCIgY3k9IjM3NCIgZmlsbD0iI0FERDFCMiIgcng9IjExIiByeT0iMTEiIHN0eWxlPSJzdHJva2U6IzE4MTgxODtzdHJva2Utd2lkdGg6MS4wOyIvPjxwYXRoIGQ9Ik00OC40MjUsMzc4LjI1IEw0OC40MjUsMzgwIEw1My4zNjI1LDM4MCBMNTMuMzYyNSwzNzguMjUgTDQ4LjQyNSwzNzguMjUgWiBNNDkuMTEyNSwzNzguOTM3NSBRNDkuMTEyNSwzNzguOTM3NSA0OS4xMTI1LDM2OS43NSBMNDcuMzYyNSwzNjkuNzUgUTQ3LjM2MjUsMzY5Ljc1IDQ3LjM2MjUsMzc4LjkzNzUgTDQ5LjExMjUsMzc4LjkzNzUgWiBNNTIuNjc1LDM3OC45Mzc1IEw1NC40MjUsMzc4LjkzNzUgUTU0LjQyNSwzNzguOTM3NSA1NC40MjUsMzc2LjEyNSBMNTIuNjc1LDM3Ni4xMjUgUTUyLjY3NSwzNzYuMTI1IDUyLjY3NSwzNzguOTM3NSBaIE01Mi42NzUsMzY5Ljc1IFE1Mi42NzUsMzY5Ljc1IDUyLjY3NSwzNzIuNTYyNSBMNTQuNDI1LDM3Mi41NjI1IFE1NC40MjUsMzcyLjU2MjUgNTQuNDI1LDM2OS43NSBMNTIuNjc1LDM2OS43NSBaIE00OC40MjUsMzcwLjQzNzUgTDUzLjM2MjUsMzcwLjQzNzUgTDUzLjM2MjUsMzY4LjY4NzUgTDQ4LjQyNSwzNjguNjg3NSBMNDguNDI1LDM3MC40Mzc1IFogIiBmaWxsPSIjMDAwMDAwIi8+PHRleHQgZmlsbD0iIzAwMDAwMCIgZm9udC1mYW1pbHk9InNhbnMtc2VyaWYiIGZvbnQtc2l6ZT0iMTQiIGxlbmd0aEFkanVzdD0ic3BhY2luZyIgdGV4dExlbmd0aD0iNDkiIHg9IjcxLjIiIHk9IjM3OS43NDIyIj5DYXNpbGxhPC90ZXh0PjxsaW5lIHN0eWxlPSJzdHJva2U6IzE4MTgxODtzdHJva2Utd2lkdGg6MC41OyIgeDE9IjgiIHgyPSIxNTEiIHkxPSIzOTAiIHkyPSIzOTAiLz48cmVjdCBmaWxsPSJub25lIiBoZWlnaHQ9IjYiIHN0eWxlPSJzdHJva2U6I0M4MjkzMDtzdHJva2Utd2lkdGg6MS4wOyIgd2lkdGg9IjYiIHg9IjE1IiB5PSIzOTkuOTkyMiIvPjx0ZXh0IGZpbGw9IiMwMDAwMDAiIGZvbnQtZmFtaWx5PSJzYW5zLXNlcmlmIiBmb250LXNpemU9IjE0IiBsZW5ndGhBZGp1c3Q9InNwYWNpbmciIHRleHRMZW5ndGg9IjExOSIgeD0iMjciIHk9IjQwNy4yMzQ0Ij50aXBvOiBUaXBvQ2FzaWxsYTwvdGV4dD48cmVjdCBmaWxsPSJub25lIiBoZWlnaHQ9IjYiIHN0eWxlPSJzdHJva2U6I0M4MjkzMDtzdHJva2Utd2lkdGg6MS4wOyIgd2lkdGg9IjYiIHg9IjE1IiB5PSI0MTQuOTc2NiIvPjx0ZXh0IGZpbGw9IiMwMDAwMDAiIGZvbnQtZmFtaWx5PSJzYW5zLXNlcmlmIiBmb250LXNpemU9IjE0IiBsZW5ndGhBZGp1c3Q9InNwYWNpbmciIHRleHRMZW5ndGg9IjcwIiB4PSIyNyIgeT0iNDIyLjIxODgiPnZhbG9yOiBpbnQ8L3RleHQ+PHJlY3QgZmlsbD0ibm9uZSIgaGVpZ2h0PSI2IiBzdHlsZT0ic3Ryb2tlOiNDODI5MzA7c3Ryb2tlLXdpZHRoOjEuMDsiIHdpZHRoPSI2IiB4PSIxNSIgeT0iNDI5Ljk2MDkiLz48dGV4dCBmaWxsPSIjMDAwMDAwIiBmb250LWZhbWlseT0ic2Fucy1zZXJpZiIgZm9udC1zaXplPSIxNCIgbGVuZ3RoQWRqdXN0PSJzcGFjaW5nIiB0ZXh0TGVuZ3RoPSIxMTkiIHg9IjI3IiB5PSI0MzcuMjAzMSI+ZGVzY3ViaWVydGE6IGJvb2w8L3RleHQ+PHJlY3QgZmlsbD0ibm9uZSIgaGVpZ2h0PSI2IiBzdHlsZT0ic3Ryb2tlOiNDODI5MzA7c3Ryb2tlLXdpZHRoOjEuMDsiIHdpZHRoPSI2IiB4PSIxNSIgeT0iNDQ0Ljk0NTMiLz48dGV4dCBmaWxsPSIjMDAwMDAwIiBmb250LWZhbWlseT0ic2Fucy1zZXJpZiIgZm9udC1zaXplPSIxNCIgbGVuZ3RoQWRqdXN0PSJzcGFjaW5nIiB0ZXh0TGVuZ3RoPSI5MiIgeD0iMjciIHk9IjQ1Mi4xODc1Ij5tYXJjYWRhOiBib29sPC90ZXh0PjxsaW5lIHN0eWxlPSJzdHJva2U6IzE4MTgxODtzdHJva2Utd2lkdGg6MC41OyIgeDE9IjgiIHgyPSIxNTEiIHkxPSI0NTcuOTM3NSIgeTI9IjQ1Ny45Mzc1Ii8+PC9nPjwhLS1jbGFzcyBUaXBvQ2FzaWxsYS0tPjxnIGlkPSJlbGVtX1RpcG9DYXNpbGxhIj48cmVjdCBjb2RlTGluZT0iMjMiIGZpbGw9IiNGMUYxRjEiIGhlaWdodD0iOTIuOTUzMSIgaWQ9IlRpcG9DYXNpbGxhIiByeD0iMi41IiByeT0iMi41IiBzdHlsZT0ic3Ryb2tlOiMxODE4MTg7c3Ryb2tlLXdpZHRoOjAuNTsiIHdpZHRoPSIxMDkiIHg9IjE4NyIgeT0iMzY1LjUiLz48ZWxsaXBzZSBjeD0iMjAyIiBjeT0iMzgxLjUiIGZpbGw9IiNBREQxQjIiIHJ4PSIxMSIgcnk9IjExIiBzdHlsZT0ic3Ryb2tlOiMxODE4MTg7c3Ryb2tlLXdpZHRoOjEuMDsiLz48cGF0aCBkPSJNMTk5LjYyNSwzODUuNzUgTDE5OS42MjUsMzg3LjUgTDIwNC41NjI1LDM4Ny41IEwyMDQuNTYyNSwzODUuNzUgTDE5OS42MjUsMzg1Ljc1IFogTTIwMC4zMTI1LDM4Ni40Mzc1IFEyMDAuMzEyNSwzODYuNDM3NSAyMDAuMzEyNSwzNzcuMjUgTDE5OC41NjI1LDM3Ny4yNSBRMTk4LjU2MjUsMzc3LjI1IDE5OC41NjI1LDM4Ni40Mzc1IEwyMDAuMzEyNSwzODYuNDM3NSBaIE0yMDMuODc1LDM4Ni40Mzc1IEwyMDUuNjI1LDM4Ni40Mzc1IFEyMDUuNjI1LDM4Ni40Mzc1IDIwNS42MjUsMzgzLjYyNSBMMjAzLjg3NSwzODMuNjI1IFEyMDMuODc1LDM4My42MjUgMjAzLjg3NSwzODYuNDM3NSBaIE0yMDMuODc1LDM3Ny4yNSBRMjAzLjg3NSwzNzcuMjUgMjAzLjg3NSwzODAuMDYyNSBMMjA1LjYyNSwzODAuMDYyNSBRMjA1LjYyNSwzODAuMDYyNSAyMDUuNjI1LDM3Ny4yNSBMMjAzLjg3NSwzNzcuMjUgWiBNMTk5LjYyNSwzNzcuOTM3NSBMMjA0LjU2MjUsMzc3LjkzNzUgTDIwNC41NjI1LDM3Ni4xODc1IEwxOTkuNjI1LDM3Ni4xODc1IEwxOTkuNjI1LDM3Ny45Mzc1IFogIiBmaWxsPSIjMDAwMDAwIi8+PHRleHQgZmlsbD0iIzAwMDAwMCIgZm9udC1mYW1pbHk9InNhbnMtc2VyaWYiIGZvbnQtc2l6ZT0iMTQiIGxlbmd0aEFkanVzdD0ic3BhY2luZyIgdGV4dExlbmd0aD0iNzciIHg9IjIxNiIgeT0iMzg3LjI0MjIiPlRpcG9DYXNpbGxhPC90ZXh0PjxsaW5lIHN0eWxlPSJzdHJva2U6IzE4MTgxODtzdHJva2Utd2lkdGg6MC41OyIgeDE9IjE4OCIgeDI9IjI5NSIgeTE9IjM5Ny41IiB5Mj0iMzk3LjUiLz48cmVjdCBmaWxsPSJub25lIiBoZWlnaHQ9IjYiIHN0eWxlPSJzdHJva2U6I0M4MjkzMDtzdHJva2Utd2lkdGg6MS4wOyIgd2lkdGg9IjYiIHg9IjE5NSIgeT0iNDA3LjQ5MjIiLz48dGV4dCBmaWxsPSIjMDAwMDAwIiBmb250LWZhbWlseT0ic2Fucy1zZXJpZiIgZm9udC1zaXplPSIxNCIgbGVuZ3RoQWRqdXN0PSJzcGFjaW5nIiB0ZXh0TGVuZ3RoPSIyOCIgeD0iMjA3IiB5PSI0MTQuNzM0NCI+TWluYTwvdGV4dD48cmVjdCBmaWxsPSJub25lIiBoZWlnaHQ9IjYiIHN0eWxlPSJzdHJva2U6I0M4MjkzMDtzdHJva2Utd2lkdGg6MS4wOyIgd2lkdGg9IjYiIHg9IjE5NSIgeT0iNDIyLjQ3NjYiLz48dGV4dCBmaWxsPSIjMDAwMDAwIiBmb250LWZhbWlseT0ic2Fucy1zZXJpZiIgZm9udC1zaXplPSIxNCIgbGVuZ3RoQWRqdXN0PSJzcGFjaW5nIiB0ZXh0TGVuZ3RoPSI0MyIgeD0iMjA3IiB5PSI0MjkuNzE4OCI+TnVtZXJvPC90ZXh0PjxyZWN0IGZpbGw9Im5vbmUiIGhlaWdodD0iNiIgc3R5bGU9InN0cm9rZTojQzgyOTMwO3N0cm9rZS13aWR0aDoxLjA7IiB3aWR0aD0iNiIgeD0iMTk1IiB5PSI0MzcuNDYwOSIvPjx0ZXh0IGZpbGw9IiMwMDAwMDAiIGZvbnQtZmFtaWx5PSJzYW5zLXNlcmlmIiBmb250LXNpemU9IjE0IiBsZW5ndGhBZGp1c3Q9InNwYWNpbmciIHRleHRMZW5ndGg9IjM1IiB4PSIyMDciIHk9IjQ0NC43MDMxIj5WYWNpYTwvdGV4dD48bGluZSBzdHlsZT0ic3Ryb2tlOiMxODE4MTg7c3Ryb2tlLXdpZHRoOjAuNTsiIHgxPSIxODgiIHgyPSIyOTUiIHkxPSI0NTAuNDUzMSIgeTI9IjQ1MC40NTMxIi8+PC9nPjwhLS1jbGFzcyBDcm9ub21ldHJvLS0+PGcgaWQ9ImVsZW1fQ3Jvbm9tZXRybyI+PHJlY3QgY29kZUxpbmU9IjI5IiBmaWxsPSIjRjFGMUYxIiBoZWlnaHQ9IjkyLjk1MzEiIGlkPSJDcm9ub21ldHJvIiByeD0iMi41IiByeT0iMi41IiBzdHlsZT0ic3Ryb2tlOiMxODE4MTg7c3Ryb2tlLXdpZHRoOjAuNTsiIHdpZHRoPSIyMTgiIHg9IjM5MS41IiB5PSIzNjUuNSIvPjxlbGxpcHNlIGN4PSI0NjAuNzUiIGN5PSIzODEuNSIgZmlsbD0iI0FERDFCMiIgcng9IjExIiByeT0iMTEiIHN0eWxlPSJzdHJva2U6IzE4MTgxODtzdHJva2Utd2lkdGg6MS4wOyIvPjxwYXRoIGQ9Ik00NTguMzc1LDM4NS43NSBMNDU4LjM3NSwzODcuNSBMNDYzLjMxMjUsMzg3LjUgTDQ2My4zMTI1LDM4NS43NSBMNDU4LjM3NSwzODUuNzUgWiBNNDU5LjA2MjUsMzg2LjQzNzUgUTQ1OS4wNjI1LDM4Ni40Mzc1IDQ1OS4wNjI1LDM3Ny4yNSBMNDU3LjMxMjUsMzc3LjI1IFE0NTcuMzEyNSwzNzcuMjUgNDU3LjMxMjUsMzg2LjQzNzUgTDQ1OS4wNjI1LDM4Ni40Mzc1IFogTTQ2Mi42MjUsMzg2LjQzNzUgTDQ2NC4zNzUsMzg2LjQzNzUgUTQ2NC4zNzUsMzg2LjQzNzUgNDY0LjM3NSwzODMuNjI1IEw0NjIuNjI1LDM4My42MjUgUTQ2Mi42MjUsMzgzLjYyNSA0NjIuNjI1LDM4Ni40Mzc1IFogTTQ2Mi42MjUsMzc3LjI1IFE0NjIuNjI1LDM3Ny4yNSA0NjIuNjI1LDM4MC4wNjI1IEw0NjQuMzc1LDM4MC4wNjI1IFE0NjQuMzc1LDM4MC4wNjI1IDQ2NC4zNzUsMzc3LjI1IEw0NjIuNjI1LDM3Ny4yNSBaIE00NTguMzc1LDM3Ny45Mzc1IEw0NjMuMzEyNSwzNzcuOTM3NSBMNDYzLjMxMjUsMzc2LjE4NzUgTDQ1OC4zNzUsMzc2LjE4NzUgTDQ1OC4zNzUsMzc3LjkzNzUgWiAiIGZpbGw9IiMwMDAwMDAiLz48dGV4dCBmaWxsPSIjMDAwMDAwIiBmb250LWZhbWlseT0ic2Fucy1zZXJpZiIgZm9udC1zaXplPSIxNCIgbGVuZ3RoQWRqdXN0PSJzcGFjaW5nIiB0ZXh0TGVuZ3RoPSI3MSIgeD0iNDgxLjI1IiB5PSIzODcuMjQyMiI+Q3Jvbm9tZXRybzwvdGV4dD48bGluZSBzdHlsZT0ic3Ryb2tlOiMxODE4MTg7c3Ryb2tlLXdpZHRoOjAuNTsiIHgxPSIzOTIuNSIgeDI9IjYwOC41IiB5MT0iMzk3LjUiIHkyPSIzOTcuNSIvPjxsaW5lIHN0eWxlPSJzdHJva2U6IzE4MTgxODtzdHJva2Utd2lkdGg6MC41OyIgeDE9IjM5Mi41IiB4Mj0iNjA4LjUiIHkxPSI0MDUuNSIgeTI9IjQwNS41Ii8+PGVsbGlwc2UgY3g9IjQwMi41IiBjeT0iNDE4LjQ5MjIiIGZpbGw9IiM4NEJFODQiIHJ4PSIzIiByeT0iMyIgc3R5bGU9InN0cm9rZTojMDM4MDQ4O3N0cm9rZS13aWR0aDoxLjA7Ii8+PHRleHQgZmlsbD0iIzAwMDAwMCIgZm9udC1mYW1pbHk9InNhbnMtc2VyaWYiIGZvbnQtc2l6ZT0iMTQiIGxlbmd0aEFkanVzdD0ic3BhY2luZyIgdGV4dExlbmd0aD0iNjUiIHg9IjQxMS41IiB5PSI0MjIuNzM0NCI+aW5pY2lhcigpPC90ZXh0PjxlbGxpcHNlIGN4PSI0MDIuNSIgY3k9IjQzMy40NzY2IiBmaWxsPSIjODRCRTg0IiByeD0iMyIgcnk9IjMiIHN0eWxlPSJzdHJva2U6IzAzODA0ODtzdHJva2Utd2lkdGg6MS4wOyIvPjx0ZXh0IGZpbGw9IiMwMDAwMDAiIGZvbnQtZmFtaWx5PSJzYW5zLXNlcmlmIiBmb250LXNpemU9IjE0IiBsZW5ndGhBZGp1c3Q9InNwYWNpbmciIHRleHRMZW5ndGg9IjY1IiB4PSI0MTEuNSIgeT0iNDM3LjcxODgiPmRldGVuZXIoKTwvdGV4dD48ZWxsaXBzZSBjeD0iNDAyLjUiIGN5PSI0NDguNDYwOSIgZmlsbD0iIzg0QkU4NCIgcng9IjMiIHJ5PSIzIiBzdHlsZT0ic3Ryb2tlOiMwMzgwNDg7c3Ryb2tlLXdpZHRoOjEuMDsiLz48dGV4dCBmaWxsPSIjMDAwMDAwIiBmb250LWZhbWlseT0ic2Fucy1zZXJpZiIgZm9udC1zaXplPSIxNCIgbGVuZ3RoQWRqdXN0PSJzcGFjaW5nIiB0ZXh0TGVuZ3RoPSIxOTIiIHg9IjQxMS41IiB5PSI0NTIuNzAzMSI+b2J0ZW5lclRpZW1wb1RyYW5zY3VycmlkbygpPC90ZXh0PjwvZz48IS0tY2xhc3MgQ29udGFkb3JNaW5hcy0tPjxnIGlkPSJlbGVtX0NvbnRhZG9yTWluYXMiPjxyZWN0IGNvZGVMaW5lPSIzNSIgZmlsbD0iI0YxRjFGMSIgaGVpZ2h0PSI5Mi45NTMxIiBpZD0iQ29udGFkb3JNaW5hcyIgcng9IjIuNSIgcnk9IjIuNSIgc3R5bGU9InN0cm9rZTojMTgxODE4O3N0cm9rZS13aWR0aDowLjU7IiB3aWR0aD0iMTg5IiB4PSI0MzYiIHk9IjE5Ny41Ii8+PGVsbGlwc2UgY3g9IjQ4MC43NSIgY3k9IjIxMy41IiBmaWxsPSIjQUREMUIyIiByeD0iMTEiIHJ5PSIxMSIgc3R5bGU9InN0cm9rZTojMTgxODE4O3N0cm9rZS13aWR0aDoxLjA7Ii8+PHBhdGggZD0iTTQ3OC4zNzUsMjE3Ljc1IEw0NzguMzc1LDIxOS41IEw0ODMuMzEyNSwyMTkuNSBMNDgzLjMxMjUsMjE3Ljc1IEw0NzguMzc1LDIxNy43NSBaIE00NzkuMDYyNSwyMTguNDM3NSBRNDc5LjA2MjUsMjE4LjQzNzUgNDc5LjA2MjUsMjA5LjI1IEw0NzcuMzEyNSwyMDkuMjUgUTQ3Ny4zMTI1LDIwOS4yNSA0NzcuMzEyNSwyMTguNDM3NSBMNDc5LjA2MjUsMjE4LjQzNzUgWiBNNDgyLjYyNSwyMTguNDM3NSBMNDg0LjM3NSwyMTguNDM3NSBRNDg0LjM3NSwyMTguNDM3NSA0ODQuMzc1LDIxNS42MjUgTDQ4Mi42MjUsMjE1LjYyNSBRNDgyLjYyNSwyMTUuNjI1IDQ4Mi42MjUsMjE4LjQzNzUgWiBNNDgyLjYyNSwyMDkuMjUgUTQ4Mi42MjUsMjA5LjI1IDQ4Mi42MjUsMjEyLjA2MjUgTDQ4NC4zNzUsMjEyLjA2MjUgUTQ4NC4zNzUsMjEyLjA2MjUgNDg0LjM3NSwyMDkuMjUgTDQ4Mi42MjUsMjA5LjI1IFogTTQ3OC4zNzUsMjA5LjkzNzUgTDQ4My4zMTI1LDIwOS45Mzc1IEw0ODMuMzEyNSwyMDguMTg3NSBMNDc4LjM3NSwyMDguMTg3NSBMNDc4LjM3NSwyMDkuOTM3NSBaICIgZmlsbD0iIzAwMDAwMCIvPjx0ZXh0IGZpbGw9IiMwMDAwMDAiIGZvbnQtZmFtaWx5PSJzYW5zLXNlcmlmIiBmb250LXNpemU9IjE0IiBsZW5ndGhBZGp1c3Q9InNwYWNpbmciIHRleHRMZW5ndGg9IjkxIiB4PSI1MDEuMjUiIHk9IjIxOS4yNDIyIj5Db250YWRvck1pbmFzPC90ZXh0PjxsaW5lIHN0eWxlPSJzdHJva2U6IzE4MTgxODtzdHJva2Utd2lkdGg6MC41OyIgeDE9IjQzNyIgeDI9IjYyNCIgeTE9IjIyOS41IiB5Mj0iMjI5LjUiLz48cmVjdCBmaWxsPSJub25lIiBoZWlnaHQ9IjYiIHN0eWxlPSJzdHJva2U6I0M4MjkzMDtzdHJva2Utd2lkdGg6MS4wOyIgd2lkdGg9IjYiIHg9IjQ0NCIgeT0iMjM5LjQ5MjIiLz48dGV4dCBmaWxsPSIjMDAwMDAwIiBmb250LWZhbWlseT0ic2Fucy1zZXJpZiIgZm9udC1zaXplPSIxNCIgbGVuZ3RoQWRqdXN0PSJzcGFjaW5nIiB0ZXh0TGVuZ3RoPSIxMjAiIHg9IjQ1NiIgeT0iMjQ2LjczNDQiPm1pbmFzVG90YWxlczogaW50PC90ZXh0PjxyZWN0IGZpbGw9Im5vbmUiIGhlaWdodD0iNiIgc3R5bGU9InN0cm9rZTojQzgyOTMwO3N0cm9rZS13aWR0aDoxLjA7IiB3aWR0aD0iNiIgeD0iNDQ0IiB5PSIyNTQuNDc2NiIvPjx0ZXh0IGZpbGw9IiMwMDAwMDAiIGZvbnQtZmFtaWx5PSJzYW5zLXNlcmlmIiBmb250LXNpemU9IjE0IiBsZW5ndGhBZGp1c3Q9InNwYWNpbmciIHRleHRMZW5ndGg9IjE1NSIgeD0iNDU2IiB5PSIyNjEuNzE4OCI+bWluYXNEZXNjdWJpZXJ0YXM6IGludDwvdGV4dD48bGluZSBzdHlsZT0ic3Ryb2tlOiMxODE4MTg7c3Ryb2tlLXdpZHRoOjAuNTsiIHgxPSI0MzciIHgyPSI2MjQiIHkxPSIyNjcuNDY4OCIgeTI9IjI2Ny40Njg4Ii8+PGVsbGlwc2UgY3g9IjQ0NyIgY3k9IjI4MC40NjA5IiBmaWxsPSIjODRCRTg0IiByeD0iMyIgcnk9IjMiIHN0eWxlPSJzdHJva2U6IzAzODA0ODtzdHJva2Utd2lkdGg6MS4wOyIvPjx0ZXh0IGZpbGw9IiMwMDAwMDAiIGZvbnQtZmFtaWx5PSJzYW5zLXNlcmlmIiBmb250LXNpemU9IjE0IiBsZW5ndGhBZGp1c3Q9InNwYWNpbmciIHRleHRMZW5ndGg9IjE2MyIgeD0iNDU2IiB5PSIyODQuNzAzMSI+cmVzdGFyTWluYURlc2N1YmllcnRhKCk8L3RleHQ+PC9nPjwhLS1saW5rIEp1ZWdvQnVzY2FtaW5hcyB0byBUYWJsZXJvLS0+PGcgaWQ9ImxpbmtfSnVlZ29CdXNjYW1pbmFzX1RhYmxlcm8iPjxwYXRoIGNvZGVMaW5lPSI0MSIgZD0iTTMyMi4zNCwxMzAuMTggQzMwNC4yNywxNDguNDEgMjg0LjUyLDE2OC4zNCAyNjYuNzEsMTg2LjMgIiBmaWxsPSJub25lIiBpZD0iSnVlZ29CdXNjYW1pbmFzLXRvLVRhYmxlcm8iIHN0eWxlPSJzdHJva2U6IzE4MTgxODtzdHJva2Utd2lkdGg6MS4wOyIvPjxwb2x5Z29uIGZpbGw9IiMxODE4MTgiIHBvaW50cz0iMjYzLjE4LDE4OS44NiwyNzIuMzU4MSwxODYuMjg3NCwyNjYuNzAxMiwxODYuMzEwMiwyNjYuNjc4NCwxODAuNjUzNCwyNjMuMTgsMTg5Ljg2IiBzdHlsZT0ic3Ryb2tlOiMxODE4MTg7c3Ryb2tlLXdpZHRoOjEuMDsiLz48L2c+PCEtLWxpbmsgSnVlZ29CdXNjYW1pbmFzIHRvIENyb25vbWV0cm8tLT48ZyBpZD0ibGlua19KdWVnb0J1c2NhbWluYXNfQ3Jvbm9tZXRybyI+PHBhdGggY29kZUxpbmU9IjQyIiBkPSJNMzg0LjM1LDEzMC4yOCBDMzg3LjYsMTc3LjU3IDM5Ni4xOCwyNDQgNDE4LjUsMjk4IEM0MjcuNzUsMzIwLjM5IDQ0Mi4yOCwzNDIuNTIgNDU2LjU1LDM2MS4xOCAiIGZpbGw9Im5vbmUiIGlkPSJKdWVnb0J1c2NhbWluYXMtdG8tQ3Jvbm9tZXRybyIgc3R5bGU9InN0cm9rZTojMTgxODE4O3N0cm9rZS13aWR0aDoxLjA7Ii8+PHBvbHlnb24gZmlsbD0iIzE4MTgxOCIgcG9pbnRzPSI0NTkuNzgsMzY1LjM1LDQ1Ny40NDMxLDM1NS43ODI0LDQ1Ni43MjMyLDM2MS4zOTMzLDQ1MS4xMTIzLDM2MC42NzMzLDQ1OS43OCwzNjUuMzUiIHN0eWxlPSJzdHJva2U6IzE4MTgxODtzdHJva2Utd2lkdGg6MS4wOyIvPjwvZz48IS0tbGluayBKdWVnb0J1c2NhbWluYXMgdG8gQ29udGFkb3JNaW5hcy0tPjxnIGlkPSJsaW5rX0p1ZWdvQnVzY2FtaW5hc19Db250YWRvck1pbmFzIj48cGF0aCBjb2RlTGluZT0iNDMiIGQ9Ik00MzQuMjYsMTMwLjE4IEM0NTEuOTIsMTUwLjg5IDQ3MS40NSwxNzMuNzcgNDg4LjI3LDE5My40OSAiIGZpbGw9Im5vbmUiIGlkPSJKdWVnb0J1c2NhbWluYXMtdG8tQ29udGFkb3JNaW5hcyIgc3R5bGU9InN0cm9rZTojMTgxODE4O3N0cm9rZS13aWR0aDoxLjA7Ii8+PHBvbHlnb24gZmlsbD0iIzE4MTgxOCIgcG9pbnRzPSI0OTEuNiwxOTcuMzksNDg4Ljc3OTksMTg3Ljk1MzUsNDg4LjM0NiwxOTMuNTkzNyw0ODIuNzA1OSwxOTMuMTU5OSw0OTEuNiwxOTcuMzkiIHN0eWxlPSJzdHJva2U6IzE4MTgxODtzdHJva2Utd2lkdGg6MS4wOyIvPjwvZz48IS0tbGluayBUYWJsZXJvIHRvIENhc2lsbGEtLT48ZyBpZD0ibGlua19UYWJsZXJvX0Nhc2lsbGEiPjxwYXRoIGNvZGVMaW5lPSI0NCIgZD0iTTE2OC4zMywyOTguNDQgQzE1NC4zNSwzMTYuMTUgMTM4Ljc1LDMzNS45MyAxMjQuNTYsMzUzLjkgIiBmaWxsPSJub25lIiBpZD0iVGFibGVyby10by1DYXNpbGxhIiBzdHlsZT0ic3Ryb2tlOiMxODE4MTg7c3Ryb2tlLXdpZHRoOjEuMDsiLz48cG9seWdvbiBmaWxsPSIjMTgxODE4IiBwb2ludHM9IjEyMS4zNywzNTcuOTUsMTMwLjA4NTIsMzUzLjM2MjYsMTI0LjQ2NzMsMzU0LjAyNDksMTIzLjgwNSwzNDguNDA2OSwxMjEuMzcsMzU3Ljk1IiBzdHlsZT0ic3Ryb2tlOiMxODE4MTg7c3Ryb2tlLXdpZHRoOjEuMDsiLz48L2c+PCEtLWxpbmsgVGFibGVybyB0byBUaXBvQ2FzaWxsYS0tPjxnIGlkPSJsaW5rX1RhYmxlcm9fVGlwb0Nhc2lsbGEiPjxwYXRoIGNvZGVMaW5lPSI0NSIgZD0iTTIyMC40OCwyOTguNDQgQzIyNC4yLDMxOC4zNiAyMjguNDEsMzQwLjg5IDIzMi4wOCwzNjAuNTQgIiBmaWxsPSJub25lIiBpZD0iVGFibGVyby10by1UaXBvQ2FzaWxsYSIgc3R5bGU9InN0cm9rZTojMTgxODE4O3N0cm9rZS13aWR0aDoxLjA7Ii8+PHBvbHlnb24gZmlsbD0iIzE4MTgxOCIgcG9pbnRzPSIyMzMsMzY1LjQ3LDIzNS4yODYzLDM1NS44OTAyLDIzMi4wODU1LDM2MC41NTQzLDIyNy40MjEzLDM1Ny4zNTM1LDIzMywzNjUuNDciIHN0eWxlPSJzdHJva2U6IzE4MTgxODtzdHJva2Utd2lkdGg6MS4wOyIvPjwvZz48IS0tbGluayBDb250YWRvck1pbmFzIHRvIENyb25vbWV0cm8tLT48ZyBpZD0ibGlua19Db250YWRvck1pbmFzX0Nyb25vbWV0cm8iPjxwYXRoIGNvZGVMaW5lPSI0NiIgZD0iTTUyMi4yMiwyOTAuOCBDNTE4LjMyLDMxMi4zOSA1MTMuNjUsMzM4LjIyIDUwOS42NSwzNjAuMzkgIiBmaWxsPSJub25lIiBpZD0iQ29udGFkb3JNaW5hcy10by1Dcm9ub21ldHJvIiBzdHlsZT0ic3Ryb2tlOiMxODE4MTg7c3Ryb2tlLXdpZHRoOjEuMDsiLz48cG9seWdvbiBmaWxsPSIjMTgxODE4IiBwb2ludHM9IjUwOC43NSwzNjUuMzUsNTE0LjI4MjksMzU3LjIwMjIsNTA5LjYzNjksMzYwLjQyOTMsNTA2LjQwOTgsMzU1Ljc4MzIsNTA4Ljc1LDM2NS4zNSIgc3R5bGU9InN0cm9rZTojMTgxODE4O3N0cm9rZS13aWR0aDoxLjA7Ii8+PC9nPjwhLS1TUkM9W1pMQW5KaUdtM0R0eDVIY0JvbHIwMW1RRTJHY2N3ZlJKM012ZzdLNWZWN0JJNG1abnh4SEVzZ1JlYTVYUS1wcWRwdHduamsyelVYeG1KOC0zcnowUjFydno1S2hqTDgzTThiRWpjWFc4ZzlhU3pIV2NWQl80YUk4TmUyRC1jVXVPc0ptVDJvaHJGZm8xei0yRGpMMS1yQ2d1U0F5LXZOeWQxSnNtX2hsWWtvWXFqOWx3SU10Z00zdWZua1h1RWZ3NDBRVlZJMHg3cjhPYmduSlo1VXFfbjVCMXg4Y3ZKOFFDdHVHQlVXTEJsMGZyd0ZORzZrRzBqTWc5aEEwb04zU1p3cDNoTktiWkNhbzJydzZWUkotMERmMHJqSldsUHdmSHNlbTVONE9WRW1wZVNDd2ViUW1uczUtZU9OMVpUeW9jZXA4VkN0LWpyOFdpR3FDMUJGZnJFYTZWclg1enhnYUY4NVRhVjVKdmxNQXh0U0VvTHhVdVJCVGtxZmxiY1hUMmNGR2tFUFFfcnRSR2hUR0ZdLS0+PC9nPjwvc3ZnPg==;" vertex="1" parent="WIyWlLk6GJQsqaUBKTNV-1">
            <mxGeometry x="70" y="660" width="632" height="472" as="geometry" />
          </mxCell>
        </UserObject>
        <mxCell id="IKGjknTljFA5LxFjr2B9-46" value="Persistencia" style="whiteSpace=wrap;strokeWidth=2;verticalAlign=top;" vertex="1" parent="WIyWlLk6GJQsqaUBKTNV-1">
          <mxGeometry x="423" y="1414" width="190" height="84" as="geometry" />
        </mxCell>
        <mxCell id="IKGjknTljFA5LxFjr2B9-47" value="Base de Datos" style="whiteSpace=wrap;strokeWidth=2;" vertex="1" parent="WIyWlLk6GJQsqaUBKTNV-1">
          <mxGeometry x="458" y="1439" width="120" height="34" as="geometry" />
        </mxCell>
        <mxCell id="IKGjknTljFA5LxFjr2B9-48" value="LogicaDelJuego" style="whiteSpace=wrap;strokeWidth=2;verticalAlign=top;" vertex="1" parent="WIyWlLk6GJQsqaUBKTNV-1">
          <mxGeometry x="380" y="1548" width="278" height="168" as="geometry" />
        </mxCell>
        <mxCell id="IKGjknTljFA5LxFjr2B9-49" value="Tablero" style="whiteSpace=wrap;strokeWidth=2;" vertex="1" parent="WIyWlLk6GJQsqaUBKTNV-1">
          <mxGeometry x="484" y="1573" width="67" height="34" as="geometry" />
        </mxCell>
        <mxCell id="IKGjknTljFA5LxFjr2B9-50" value="Casilla" style="whiteSpace=wrap;strokeWidth=2;" vertex="1" parent="WIyWlLk6GJQsqaUBKTNV-1">
          <mxGeometry x="416" y="1657" width="63" height="34" as="geometry" />
        </mxCell>
        <mxCell id="IKGjknTljFA5LxFjr2B9-51" value="TipoCasilla" style="whiteSpace=wrap;strokeWidth=2;" vertex="1" parent="WIyWlLk6GJQsqaUBKTNV-1">
          <mxGeometry x="529" y="1657" width="94" height="34" as="geometry" />
        </mxCell>
        <mxCell id="IKGjknTljFA5LxFjr2B9-52" value="MotorDelJuego" style="whiteSpace=wrap;strokeWidth=2;verticalAlign=top;" vertex="1" parent="WIyWlLk6GJQsqaUBKTNV-1">
          <mxGeometry x="90" y="1414" width="257" height="302" as="geometry" />
        </mxCell>
        <mxCell id="IKGjknTljFA5LxFjr2B9-53" value="JuegoBuscaminas" style="whiteSpace=wrap;strokeWidth=2;" vertex="1" parent="WIyWlLk6GJQsqaUBKTNV-1">
          <mxGeometry x="134" y="1439" width="146" height="34" as="geometry" />
        </mxCell>
        <mxCell id="IKGjknTljFA5LxFjr2B9-54" value="Cronometro" style="whiteSpace=wrap;strokeWidth=2;" vertex="1" parent="WIyWlLk6GJQsqaUBKTNV-1">
          <mxGeometry x="143" y="1657" width="100" height="34" as="geometry" />
        </mxCell>
        <mxCell id="IKGjknTljFA5LxFjr2B9-55" value="ContadorMinas" style="whiteSpace=wrap;strokeWidth=2;" vertex="1" parent="WIyWlLk6GJQsqaUBKTNV-1">
          <mxGeometry x="177" y="1573" width="124" height="34" as="geometry" />
        </mxCell>
        <mxCell id="IKGjknTljFA5LxFjr2B9-56" value="Usuario" style="whiteSpace=wrap;strokeWidth=2;verticalAlign=top;" vertex="1" parent="WIyWlLk6GJQsqaUBKTNV-1">
          <mxGeometry x="108" y="1280" width="198" height="84" as="geometry" />
        </mxCell>
        <mxCell id="IKGjknTljFA5LxFjr2B9-57" value="IInterfazUsuario" style="rounded=1;absoluteArcSize=1;arcSize=14;whiteSpace=wrap;strokeWidth=2;" vertex="1" parent="WIyWlLk6GJQsqaUBKTNV-1">
          <mxGeometry x="143" y="1305" width="128" height="34" as="geometry" />
        </mxCell>
        <mxCell id="IKGjknTljFA5LxFjr2B9-58" value="" style="curved=1;startArrow=none;endArrow=block;exitX=0.4981119930744171;exitY=0.9995098114013672;entryX=0.4983447610515438;entryY=-0.0004901885986328125;rounded=0;" edge="1" parent="WIyWlLk6GJQsqaUBKTNV-1" source="IKGjknTljFA5LxFjr2B9-57" target="IKGjknTljFA5LxFjr2B9-53">
          <mxGeometry relative="1" as="geometry">
            <Array as="points" />
          </mxGeometry>
        </mxCell>
        <mxCell id="IKGjknTljFA5LxFjr2B9-59" value="" style="curved=1;startArrow=none;endArrow=block;exitX=0.7375626808444176;exitY=0.9990196228027344;entryX=0.002176626404719566;entryY=0.31341187088380995;rounded=0;" edge="1" parent="WIyWlLk6GJQsqaUBKTNV-1" source="IKGjknTljFA5LxFjr2B9-53" target="IKGjknTljFA5LxFjr2B9-49">
          <mxGeometry relative="1" as="geometry">
            <Array as="points">
              <mxPoint x="293" y="1498" />
              <mxPoint x="293" y="1548" />
            </Array>
          </mxGeometry>
        </mxCell>
        <mxCell id="IKGjknTljFA5LxFjr2B9-60" value="" style="curved=1;startArrow=none;endArrow=block;exitX=0.31990423974599663;exitY=0.9990196228027344;entryX=0.2910808240059481;entryY=-0.0014705657958984375;rounded=0;" edge="1" parent="WIyWlLk6GJQsqaUBKTNV-1" source="IKGjknTljFA5LxFjr2B9-53" target="IKGjknTljFA5LxFjr2B9-54">
          <mxGeometry relative="1" as="geometry">
            <Array as="points">
              <mxPoint x="142" y="1498" />
              <mxPoint x="142" y="1632" />
            </Array>
          </mxGeometry>
        </mxCell>
        <mxCell id="IKGjknTljFA5LxFjr2B9-61" value="" style="curved=1;startArrow=none;endArrow=block;exitX=0.5880731335734182;exitY=0.9990196228027344;entryX=0.5010752831735918;entryY=-0.000980377197265625;rounded=0;" edge="1" parent="WIyWlLk6GJQsqaUBKTNV-1" source="IKGjknTljFA5LxFjr2B9-53" target="IKGjknTljFA5LxFjr2B9-55">
          <mxGeometry relative="1" as="geometry">
            <Array as="points">
              <mxPoint x="239" y="1498" />
            </Array>
          </mxGeometry>
        </mxCell>
        <mxCell id="IKGjknTljFA5LxFjr2B9-62" value="" style="curved=1;startArrow=none;endArrow=block;exitX=0.5010752831735918;exitY=0.9985294342041016;entryX=0.6826074089939838;entryY=-0.0014705657958984375;rounded=0;" edge="1" parent="WIyWlLk6GJQsqaUBKTNV-1" source="IKGjknTljFA5LxFjr2B9-55" target="IKGjknTljFA5LxFjr2B9-54">
          <mxGeometry relative="1" as="geometry">
            <Array as="points">
              <mxPoint x="239" y="1632" />
            </Array>
          </mxGeometry>
        </mxCell>
        <mxCell id="IKGjknTljFA5LxFjr2B9-63" value="" style="curved=1;startArrow=none;endArrow=block;exitX=0.0821910331142169;exitY=0.9985294342041016;entryX=0.503968284243629;entryY=-0.0014705657958984375;rounded=0;" edge="1" parent="WIyWlLk6GJQsqaUBKTNV-1" source="IKGjknTljFA5LxFjr2B9-49" target="IKGjknTljFA5LxFjr2B9-50">
          <mxGeometry relative="1" as="geometry">
            <Array as="points">
              <mxPoint x="448" y="1632" />
            </Array>
          </mxGeometry>
        </mxCell>
        <mxCell id="IKGjknTljFA5LxFjr2B9-64" value="" style="curved=1;startArrow=none;endArrow=block;exitX=0.8568523583002026;exitY=0.9985294342041016;entryX=0.5001773225500229;entryY=-0.0014705657958984375;rounded=0;" edge="1" parent="WIyWlLk6GJQsqaUBKTNV-1" source="IKGjknTljFA5LxFjr2B9-49" target="IKGjknTljFA5LxFjr2B9-51">
          <mxGeometry relative="1" as="geometry">
            <Array as="points">
              <mxPoint x="576" y="1632" />
            </Array>
          </mxGeometry>
        </mxCell>
        <mxCell id="IKGjknTljFA5LxFjr2B9-65" value="" style="curved=1;startArrow=none;endArrow=block;exitX=0.4990625222524007;exitY=0.9990196228027344;entryX=0.5057836219445982;entryY=-0.000980377197265625;rounded=0;" edge="1" parent="WIyWlLk6GJQsqaUBKTNV-1" source="IKGjknTljFA5LxFjr2B9-47" target="IKGjknTljFA5LxFjr2B9-49">
          <mxGeometry relative="1" as="geometry">
            <Array as="points" />
          </mxGeometry>
        </mxCell>
        <UserObject label="" plantUmlData="{&#xa;  &quot;data&quot;: &quot;@startuml\n\n!define USER participant\n!define GAME participant\n!define BOARD participant\n!define TILE participant\n!define TIMER participant\n!define MINES_COUNTER participant\n\nUSER User\nGAME JuegoBuscaminas\nBOARD Tablero\nTILE Casilla\nTIMER Cronometro\nMINES_COUNTER ContadorMinas\n\nUser -&gt; JuegoBuscaminas: Iniciar juego\nJuegoBuscaminas -&gt; Tablero: Crear tablero\nJuegoBuscaminas -&gt; Cronometro: Iniciar cronómetro\nJuegoBuscaminas -&gt; ContadorMinas: Iniciar contador de minas\nUser -&gt; JuegoBuscaminas: Hacer clic en (x, y)\nJuegoBuscaminas -&gt; Tablero: Revelar casilla (x, y)\nTablero -&gt; Casilla: Obtener tipo de casilla (x, y)\nTablero -&gt; Casilla: Revelar contenido\nCasilla --&gt;&gt; Tablero: Contenido revelado\nTablero --&gt;&gt; JuegoBuscaminas: Actualizar tablero\nJuegoBuscaminas -&gt; Tablero: Verificar si hay mina\nTablero --&gt;&gt; JuegoBuscaminas: Hay mina\nJuegoBuscaminas --&gt;&gt; User: Juego perdido\nJuegoBuscaminas --&gt;&gt; Cronometro: Detener cronómetro\nUser -&gt; JuegoBuscaminas: Marcar casilla (x, y)\nJuegoBuscaminas -&gt; Tablero: Marcar casilla (x, y)\nTablero -&gt; Casilla: Marcar casilla\nCasilla --&gt;&gt; Tablero: Casilla marcada\nTablero --&gt;&gt; JuegoBuscaminas: Actualizar tablero\nUser -&gt; JuegoBuscaminas: Hacer clic en (x, y)\nJuegoBuscaminas -&gt; Tablero: Revelar casilla (x, y)\nTablero -&gt; Casilla: Obtener tipo de casilla (x, y)\nTablero -&gt; Casilla: Revelar contenido\nCasilla --&gt;&gt; Tablero: Contenido revelado\nTablero --&gt;&gt; JuegoBuscaminas: Actualizar tablero\nJuegoBuscaminas -&gt; Tablero: Verificar si todas las casillas no minadas han sido reveladas\nTablero --&gt;&gt; JuegoBuscaminas: Todas las casillas reveladas\nJuegoBuscaminas --&gt;&gt; User: Juego ganado\nJuegoBuscaminas --&gt;&gt; Cronometro: Detener cronómetro\n\n@enduml\n&quot;,&#xa;  &quot;format&quot;: &quot;svg&quot;&#xa;}" id="IKGjknTljFA5LxFjr2B9-107">
          <mxCell style="shape=image;noLabel=1;verticalAlign=top;aspect=fixed;imageAspect=0;image=data:image/svg+xml,PD94bWwgdmVyc2lvbj0iMS4wIiBlbmNvZGluZz0idXMtYXNjaWkiIHN0YW5kYWxvbmU9Im5vIj8+PHN2ZyB4bWxucz0iaHR0cDovL3d3dy53My5vcmcvMjAwMC9zdmciIHhtbG5zOnhsaW5rPSJodHRwOi8vd3d3LnczLm9yZy8xOTk5L3hsaW5rIiBjb250ZW50U3R5bGVUeXBlPSJ0ZXh0L2NzcyIgaGVpZ2h0PSI4OThweCIgcHJlc2VydmVBc3BlY3RSYXRpbz0ibm9uZSIgc3R5bGU9IndpZHRoOjExMDFweDtoZWlnaHQ6ODk4cHg7YmFja2dyb3VuZDojRkZGRkZGOyIgdmVyc2lvbj0iMS4xIiB2aWV3Qm94PSIwIDAgMTEwMSA4OTgiIHdpZHRoPSIxMTAxcHgiIHpvb21BbmRQYW49Im1hZ25pZnkiPjxkZWZzLz48Zz48bGluZSBzdHlsZT0ic3Ryb2tlOiMxODE4MTg7c3Ryb2tlLXdpZHRoOjAuNTtzdHJva2UtZGFzaGFycmF5OjUuMCw1LjA7IiB4MT0iMjYiIHgyPSIyNiIgeTE9IjM0Ljk4NDQiIHkyPSI4NjQuNDkyMiIvPjxsaW5lIHN0eWxlPSJzdHJva2U6IzE4MTgxODtzdHJva2Utd2lkdGg6MC41O3N0cm9rZS1kYXNoYXJyYXk6NS4wLDUuMDsiIHgxPSIxOTAuNSIgeDI9IjE5MC41IiB5MT0iMzQuOTg0NCIgeTI9Ijg2NC40OTIyIi8+PGxpbmUgc3R5bGU9InN0cm9rZTojMTgxODE4O3N0cm9rZS13aWR0aDowLjU7c3Ryb2tlLWRhc2hhcnJheTo1LjAsNS4wOyIgeDE9IjYyOC41IiB4Mj0iNjI4LjUiIHkxPSIzNC45ODQ0IiB5Mj0iODY0LjQ5MjIiLz48bGluZSBzdHlsZT0ic3Ryb2tlOiMxODE4MTg7c3Ryb2tlLXdpZHRoOjAuNTtzdHJva2UtZGFzaGFycmF5OjUuMCw1LjA7IiB4MT0iODUzLjUiIHgyPSI4NTMuNSIgeTE9IjM0Ljk4NDQiIHkyPSI4NjQuNDkyMiIvPjxsaW5lIHN0eWxlPSJzdHJva2U6IzE4MTgxODtzdHJva2Utd2lkdGg6MC41O3N0cm9rZS1kYXNoYXJyYXk6NS4wLDUuMDsiIHgxPSI5MzcuNSIgeDI9IjkzNy41IiB5MT0iMzQuOTg0NCIgeTI9Ijg2NC40OTIyIi8+PGxpbmUgc3R5bGU9InN0cm9rZTojMTgxODE4O3N0cm9rZS13aWR0aDowLjU7c3Ryb2tlLWRhc2hhcnJheTo1LjAsNS4wOyIgeDE9IjEwNDIuNSIgeDI9IjEwNDIuNSIgeTE9IjM0Ljk4NDQiIHkyPSI4NjQuNDkyMiIvPjxyZWN0IGZpbGw9IiNFMkUyRjAiIGhlaWdodD0iMjguOTg0NCIgcng9IjIuNSIgcnk9IjIuNSIgc3R5bGU9InN0cm9rZTojMTgxODE4O3N0cm9rZS13aWR0aDowLjU7IiB3aWR0aD0iNDIiIHg9IjUiIHk9IjUiLz48dGV4dCBmaWxsPSIjMDAwMDAwIiBmb250LWZhbWlseT0ic2Fucy1zZXJpZiIgZm9udC1zaXplPSIxNCIgbGVuZ3RoQWRqdXN0PSJzcGFjaW5nIiB0ZXh0TGVuZ3RoPSIyOCIgeD0iMTIiIHk9IjI1LjIzNDQiPlVzZXI8L3RleHQ+PHJlY3QgZmlsbD0iI0UyRTJGMCIgaGVpZ2h0PSIyOC45ODQ0IiByeD0iMi41IiByeT0iMi41IiBzdHlsZT0ic3Ryb2tlOiMxODE4MTg7c3Ryb2tlLXdpZHRoOjAuNTsiIHdpZHRoPSI0MiIgeD0iNSIgeT0iODYzLjQ5MjIiLz48dGV4dCBmaWxsPSIjMDAwMDAwIiBmb250LWZhbWlseT0ic2Fucy1zZXJpZiIgZm9udC1zaXplPSIxNCIgbGVuZ3RoQWRqdXN0PSJzcGFjaW5nIiB0ZXh0TGVuZ3RoPSIyOCIgeD0iMTIiIHk9Ijg4My43MjY2Ij5Vc2VyPC90ZXh0PjxyZWN0IGZpbGw9IiNFMkUyRjAiIGhlaWdodD0iMjguOTg0NCIgcng9IjIuNSIgcnk9IjIuNSIgc3R5bGU9InN0cm9rZTojMTgxODE4O3N0cm9rZS13aWR0aDowLjU7IiB3aWR0aD0iMTIxIiB4PSIxMzAuNSIgeT0iNSIvPjx0ZXh0IGZpbGw9IiMwMDAwMDAiIGZvbnQtZmFtaWx5PSJzYW5zLXNlcmlmIiBmb250LXNpemU9IjE0IiBsZW5ndGhBZGp1c3Q9InNwYWNpbmciIHRleHRMZW5ndGg9IjEwNyIgeD0iMTM3LjUiIHk9IjI1LjIzNDQiPkp1ZWdvQnVzY2FtaW5hczwvdGV4dD48cmVjdCBmaWxsPSIjRTJFMkYwIiBoZWlnaHQ9IjI4Ljk4NDQiIHJ4PSIyLjUiIHJ5PSIyLjUiIHN0eWxlPSJzdHJva2U6IzE4MTgxODtzdHJva2Utd2lkdGg6MC41OyIgd2lkdGg9IjEyMSIgeD0iMTMwLjUiIHk9Ijg2My40OTIyIi8+PHRleHQgZmlsbD0iIzAwMDAwMCIgZm9udC1mYW1pbHk9InNhbnMtc2VyaWYiIGZvbnQtc2l6ZT0iMTQiIGxlbmd0aEFkanVzdD0ic3BhY2luZyIgdGV4dExlbmd0aD0iMTA3IiB4PSIxMzcuNSIgeT0iODgzLjcyNjYiPkp1ZWdvQnVzY2FtaW5hczwvdGV4dD48cmVjdCBmaWxsPSIjRTJFMkYwIiBoZWlnaHQ9IjI4Ljk4NDQiIHJ4PSIyLjUiIHJ5PSIyLjUiIHN0eWxlPSJzdHJva2U6IzE4MTgxODtzdHJva2Utd2lkdGg6MC41OyIgd2lkdGg9IjYzIiB4PSI1OTcuNSIgeT0iNSIvPjx0ZXh0IGZpbGw9IiMwMDAwMDAiIGZvbnQtZmFtaWx5PSJzYW5zLXNlcmlmIiBmb250LXNpemU9IjE0IiBsZW5ndGhBZGp1c3Q9InNwYWNpbmciIHRleHRMZW5ndGg9IjQ5IiB4PSI2MDQuNSIgeT0iMjUuMjM0NCI+VGFibGVybzwvdGV4dD48cmVjdCBmaWxsPSIjRTJFMkYwIiBoZWlnaHQ9IjI4Ljk4NDQiIHJ4PSIyLjUiIHJ5PSIyLjUiIHN0eWxlPSJzdHJva2U6IzE4MTgxODtzdHJva2Utd2lkdGg6MC41OyIgd2lkdGg9IjYzIiB4PSI1OTcuNSIgeT0iODYzLjQ5MjIiLz48dGV4dCBmaWxsPSIjMDAwMDAwIiBmb250LWZhbWlseT0ic2Fucy1zZXJpZiIgZm9udC1zaXplPSIxNCIgbGVuZ3RoQWRqdXN0PSJzcGFjaW5nIiB0ZXh0TGVuZ3RoPSI0OSIgeD0iNjA0LjUiIHk9Ijg4My43MjY2Ij5UYWJsZXJvPC90ZXh0PjxyZWN0IGZpbGw9IiNFMkUyRjAiIGhlaWdodD0iMjguOTg0NCIgcng9IjIuNSIgcnk9IjIuNSIgc3R5bGU9InN0cm9rZTojMTgxODE4O3N0cm9rZS13aWR0aDowLjU7IiB3aWR0aD0iNjMiIHg9IjgyMi41IiB5PSI1Ii8+PHRleHQgZmlsbD0iIzAwMDAwMCIgZm9udC1mYW1pbHk9InNhbnMtc2VyaWYiIGZvbnQtc2l6ZT0iMTQiIGxlbmd0aEFkanVzdD0ic3BhY2luZyIgdGV4dExlbmd0aD0iNDkiIHg9IjgyOS41IiB5PSIyNS4yMzQ0Ij5DYXNpbGxhPC90ZXh0PjxyZWN0IGZpbGw9IiNFMkUyRjAiIGhlaWdodD0iMjguOTg0NCIgcng9IjIuNSIgcnk9IjIuNSIgc3R5bGU9InN0cm9rZTojMTgxODE4O3N0cm9rZS13aWR0aDowLjU7IiB3aWR0aD0iNjMiIHg9IjgyMi41IiB5PSI4NjMuNDkyMiIvPjx0ZXh0IGZpbGw9IiMwMDAwMDAiIGZvbnQtZmFtaWx5PSJzYW5zLXNlcmlmIiBmb250LXNpemU9IjE0IiBsZW5ndGhBZGp1c3Q9InNwYWNpbmciIHRleHRMZW5ndGg9IjQ5IiB4PSI4MjkuNSIgeT0iODgzLjcyNjYiPkNhc2lsbGE8L3RleHQ+PHJlY3QgZmlsbD0iI0UyRTJGMCIgaGVpZ2h0PSIyOC45ODQ0IiByeD0iMi41IiByeT0iMi41IiBzdHlsZT0ic3Ryb2tlOiMxODE4MTg7c3Ryb2tlLXdpZHRoOjAuNTsiIHdpZHRoPSI4NSIgeD0iODk1LjUiIHk9IjUiLz48dGV4dCBmaWxsPSIjMDAwMDAwIiBmb250LWZhbWlseT0ic2Fucy1zZXJpZiIgZm9udC1zaXplPSIxNCIgbGVuZ3RoQWRqdXN0PSJzcGFjaW5nIiB0ZXh0TGVuZ3RoPSI3MSIgeD0iOTAyLjUiIHk9IjI1LjIzNDQiPkNyb25vbWV0cm88L3RleHQ+PHJlY3QgZmlsbD0iI0UyRTJGMCIgaGVpZ2h0PSIyOC45ODQ0IiByeD0iMi41IiByeT0iMi41IiBzdHlsZT0ic3Ryb2tlOiMxODE4MTg7c3Ryb2tlLXdpZHRoOjAuNTsiIHdpZHRoPSI4NSIgeD0iODk1LjUiIHk9Ijg2My40OTIyIi8+PHRleHQgZmlsbD0iIzAwMDAwMCIgZm9udC1mYW1pbHk9InNhbnMtc2VyaWYiIGZvbnQtc2l6ZT0iMTQiIGxlbmd0aEFkanVzdD0ic3BhY2luZyIgdGV4dExlbmd0aD0iNzEiIHg9IjkwMi41IiB5PSI4ODMuNzI2NiI+Q3Jvbm9tZXRybzwvdGV4dD48cmVjdCBmaWxsPSIjRTJFMkYwIiBoZWlnaHQ9IjI4Ljk4NDQiIHJ4PSIyLjUiIHJ5PSIyLjUiIHN0eWxlPSJzdHJva2U6IzE4MTgxODtzdHJva2Utd2lkdGg6MC41OyIgd2lkdGg9IjEwNSIgeD0iOTkwLjUiIHk9IjUiLz48dGV4dCBmaWxsPSIjMDAwMDAwIiBmb250LWZhbWlseT0ic2Fucy1zZXJpZiIgZm9udC1zaXplPSIxNCIgbGVuZ3RoQWRqdXN0PSJzcGFjaW5nIiB0ZXh0TGVuZ3RoPSI5MSIgeD0iOTk3LjUiIHk9IjI1LjIzNDQiPkNvbnRhZG9yTWluYXM8L3RleHQ+PHJlY3QgZmlsbD0iI0UyRTJGMCIgaGVpZ2h0PSIyOC45ODQ0IiByeD0iMi41IiByeT0iMi41IiBzdHlsZT0ic3Ryb2tlOiMxODE4MTg7c3Ryb2tlLXdpZHRoOjAuNTsiIHdpZHRoPSIxMDUiIHg9Ijk5MC41IiB5PSI4NjMuNDkyMiIvPjx0ZXh0IGZpbGw9IiMwMDAwMDAiIGZvbnQtZmFtaWx5PSJzYW5zLXNlcmlmIiBmb250LXNpemU9IjE0IiBsZW5ndGhBZGp1c3Q9InNwYWNpbmciIHRleHRMZW5ndGg9IjkxIiB4PSI5OTcuNSIgeT0iODgzLjcyNjYiPkNvbnRhZG9yTWluYXM8L3RleHQ+PHBvbHlnb24gZmlsbD0iIzE4MTgxOCIgcG9pbnRzPSIxNzksNjAuODk4NCwxODksNjQuODk4NCwxNzksNjguODk4NCwxODMsNjQuODk4NCIgc3R5bGU9InN0cm9rZTojMTgxODE4O3N0cm9rZS13aWR0aDoxLjA7Ii8+PGxpbmUgc3R5bGU9InN0cm9rZTojMTgxODE4O3N0cm9rZS13aWR0aDoxLjA7IiB4MT0iMjYiIHgyPSIxODUiIHkxPSI2NC44OTg0IiB5Mj0iNjQuODk4NCIvPjx0ZXh0IGZpbGw9IiMwMDAwMDAiIGZvbnQtZmFtaWx5PSJzYW5zLXNlcmlmIiBmb250LXNpemU9IjEzIiBsZW5ndGhBZGp1c3Q9InNwYWNpbmciIHRleHRMZW5ndGg9Ijg4IiB4PSIzMyIgeT0iNjEuMjczNCI+SW5pY2lhciBqdWVnbzwvdGV4dD48cG9seWdvbiBmaWxsPSIjMTgxODE4IiBwb2ludHM9IjYxNyw4OC44MTI1LDYyNyw5Mi44MTI1LDYxNyw5Ni44MTI1LDYyMSw5Mi44MTI1IiBzdHlsZT0ic3Ryb2tlOiMxODE4MTg7c3Ryb2tlLXdpZHRoOjEuMDsiLz48bGluZSBzdHlsZT0ic3Ryb2tlOiMxODE4MTg7c3Ryb2tlLXdpZHRoOjEuMDsiIHgxPSIxOTEiIHgyPSI2MjMiIHkxPSI5Mi44MTI1IiB5Mj0iOTIuODEyNSIvPjx0ZXh0IGZpbGw9IiMwMDAwMDAiIGZvbnQtZmFtaWx5PSJzYW5zLXNlcmlmIiBmb250LXNpemU9IjEzIiBsZW5ndGhBZGp1c3Q9InNwYWNpbmciIHRleHRMZW5ndGg9Ijg5IiB4PSIxOTgiIHk9Ijg5LjE4NzUiPkNyZWFyIHRhYmxlcm88L3RleHQ+PHBvbHlnb24gZmlsbD0iIzE4MTgxOCIgcG9pbnRzPSI5MjYsMTE2LjcyNjYsOTM2LDEyMC43MjY2LDkyNiwxMjQuNzI2Niw5MzAsMTIwLjcyNjYiIHN0eWxlPSJzdHJva2U6IzE4MTgxODtzdHJva2Utd2lkdGg6MS4wOyIvPjxsaW5lIHN0eWxlPSJzdHJva2U6IzE4MTgxODtzdHJva2Utd2lkdGg6MS4wOyIgeDE9IjE5MSIgeDI9IjkzMiIgeTE9IjEyMC43MjY2IiB5Mj0iMTIwLjcyNjYiLz48dGV4dCBmaWxsPSIjMDAwMDAwIiBmb250LWZhbWlseT0ic2Fucy1zZXJpZiIgZm9udC1zaXplPSIxMyIgbGVuZ3RoQWRqdXN0PSJzcGFjaW5nIiB0ZXh0TGVuZ3RoPSIxMjEiIHg9IjE5OCIgeT0iMTE3LjEwMTYiPkluaWNpYXIgY3JvbiYjMjQzO21ldHJvPC90ZXh0Pjxwb2x5Z29uIGZpbGw9IiMxODE4MTgiIHBvaW50cz0iMTAzMSwxNDQuNjQwNiwxMDQxLDE0OC42NDA2LDEwMzEsMTUyLjY0MDYsMTAzNSwxNDguNjQwNiIgc3R5bGU9InN0cm9rZTojMTgxODE4O3N0cm9rZS13aWR0aDoxLjA7Ii8+PGxpbmUgc3R5bGU9InN0cm9rZTojMTgxODE4O3N0cm9rZS13aWR0aDoxLjA7IiB4MT0iMTkxIiB4Mj0iMTAzNyIgeTE9IjE0OC42NDA2IiB5Mj0iMTQ4LjY0MDYiLz48dGV4dCBmaWxsPSIjMDAwMDAwIiBmb250LWZhbWlseT0ic2Fucy1zZXJpZiIgZm9udC1zaXplPSIxMyIgbGVuZ3RoQWRqdXN0PSJzcGFjaW5nIiB0ZXh0TGVuZ3RoPSIxNjkiIHg9IjE5OCIgeT0iMTQ1LjAxNTYiPkluaWNpYXIgY29udGFkb3IgZGUgbWluYXM8L3RleHQ+PHBvbHlnb24gZmlsbD0iIzE4MTgxOCIgcG9pbnRzPSIxNzksMTcyLjU1NDcsMTg5LDE3Ni41NTQ3LDE3OSwxODAuNTU0NywxODMsMTc2LjU1NDciIHN0eWxlPSJzdHJva2U6IzE4MTgxODtzdHJva2Utd2lkdGg6MS4wOyIvPjxsaW5lIHN0eWxlPSJzdHJva2U6IzE4MTgxODtzdHJva2Utd2lkdGg6MS4wOyIgeDE9IjI2IiB4Mj0iMTg1IiB5MT0iMTc2LjU1NDciIHkyPSIxNzYuNTU0NyIvPjx0ZXh0IGZpbGw9IiMwMDAwMDAiIGZvbnQtZmFtaWx5PSJzYW5zLXNlcmlmIiBmb250LXNpemU9IjEzIiBsZW5ndGhBZGp1c3Q9InNwYWNpbmciIHRleHRMZW5ndGg9IjEzNSIgeD0iMzMiIHk9IjE3Mi45Mjk3Ij5IYWNlciBjbGljIGVuICh4LCB5KTwvdGV4dD48cG9seWdvbiBmaWxsPSIjMTgxODE4IiBwb2ludHM9IjYxNywyMDAuNDY4OCw2MjcsMjA0LjQ2ODgsNjE3LDIwOC40Njg4LDYyMSwyMDQuNDY4OCIgc3R5bGU9InN0cm9rZTojMTgxODE4O3N0cm9rZS13aWR0aDoxLjA7Ii8+PGxpbmUgc3R5bGU9InN0cm9rZTojMTgxODE4O3N0cm9rZS13aWR0aDoxLjA7IiB4MT0iMTkxIiB4Mj0iNjIzIiB5MT0iMjA0LjQ2ODgiIHkyPSIyMDQuNDY4OCIvPjx0ZXh0IGZpbGw9IiMwMDAwMDAiIGZvbnQtZmFtaWx5PSJzYW5zLXNlcmlmIiBmb250LXNpemU9IjEzIiBsZW5ndGhBZGp1c3Q9InNwYWNpbmciIHRleHRMZW5ndGg9IjE0NyIgeD0iMTk4IiB5PSIyMDAuODQzOCI+UmV2ZWxhciBjYXNpbGxhICh4LCB5KTwvdGV4dD48cG9seWdvbiBmaWxsPSIjMTgxODE4IiBwb2ludHM9Ijg0MiwyMjguMzgyOCw4NTIsMjMyLjM4MjgsODQyLDIzNi4zODI4LDg0NiwyMzIuMzgyOCIgc3R5bGU9InN0cm9rZTojMTgxODE4O3N0cm9rZS13aWR0aDoxLjA7Ii8+PGxpbmUgc3R5bGU9InN0cm9rZTojMTgxODE4O3N0cm9rZS13aWR0aDoxLjA7IiB4MT0iNjI5IiB4Mj0iODQ4IiB5MT0iMjMyLjM4MjgiIHkyPSIyMzIuMzgyOCIvPjx0ZXh0IGZpbGw9IiMwMDAwMDAiIGZvbnQtZmFtaWx5PSJzYW5zLXNlcmlmIiBmb250LXNpemU9IjEzIiBsZW5ndGhBZGp1c3Q9InNwYWNpbmciIHRleHRMZW5ndGg9IjIwMSIgeD0iNjM2IiB5PSIyMjguNzU3OCI+T2J0ZW5lciB0aXBvIGRlIGNhc2lsbGEgKHgsIHkpPC90ZXh0Pjxwb2x5Z29uIGZpbGw9IiMxODE4MTgiIHBvaW50cz0iODQyLDI1Ni4yOTY5LDg1MiwyNjAuMjk2OSw4NDIsMjY0LjI5NjksODQ2LDI2MC4yOTY5IiBzdHlsZT0ic3Ryb2tlOiMxODE4MTg7c3Ryb2tlLXdpZHRoOjEuMDsiLz48bGluZSBzdHlsZT0ic3Ryb2tlOiMxODE4MTg7c3Ryb2tlLXdpZHRoOjEuMDsiIHgxPSI2MjkiIHgyPSI4NDgiIHkxPSIyNjAuMjk2OSIgeTI9IjI2MC4yOTY5Ii8+PHRleHQgZmlsbD0iIzAwMDAwMCIgZm9udC1mYW1pbHk9InNhbnMtc2VyaWYiIGZvbnQtc2l6ZT0iMTMiIGxlbmd0aEFkanVzdD0ic3BhY2luZyIgdGV4dExlbmd0aD0iMTE2IiB4PSI2MzYiIHk9IjI1Ni42NzE5Ij5SZXZlbGFyIGNvbnRlbmlkbzwvdGV4dD48bGluZSBzdHlsZT0ic3Ryb2tlOiMxODE4MTg7c3Ryb2tlLXdpZHRoOjEuMDsiIHgxPSI2MzAiIHgyPSI2NDAiIHkxPSIyODguMjEwOSIgeTI9IjI4NC4yMTA5Ii8+PGxpbmUgc3R5bGU9InN0cm9rZTojMTgxODE4O3N0cm9rZS13aWR0aDoxLjA7IiB4MT0iNjMwIiB4Mj0iNjQwIiB5MT0iMjg4LjIxMDkiIHkyPSIyOTIuMjEwOSIvPjxsaW5lIHN0eWxlPSJzdHJva2U6IzE4MTgxODtzdHJva2Utd2lkdGg6MS4wO3N0cm9rZS1kYXNoYXJyYXk6Mi4wLDIuMDsiIHgxPSI2MjkiIHgyPSI4NTMiIHkxPSIyODguMjEwOSIgeTI9IjI4OC4yMTA5Ii8+PHRleHQgZmlsbD0iIzAwMDAwMCIgZm9udC1mYW1pbHk9InNhbnMtc2VyaWYiIGZvbnQtc2l6ZT0iMTMiIGxlbmd0aEFkanVzdD0ic3BhY2luZyIgdGV4dExlbmd0aD0iMTIzIiB4PSI2NDYiIHk9IjI4NC41ODU5Ij5Db250ZW5pZG8gcmV2ZWxhZG88L3RleHQ+PGxpbmUgc3R5bGU9InN0cm9rZTojMTgxODE4O3N0cm9rZS13aWR0aDoxLjA7IiB4MT0iMTkyIiB4Mj0iMjAyIiB5MT0iMzE2LjEyNSIgeTI9IjMxMi4xMjUiLz48bGluZSBzdHlsZT0ic3Ryb2tlOiMxODE4MTg7c3Ryb2tlLXdpZHRoOjEuMDsiIHgxPSIxOTIiIHgyPSIyMDIiIHkxPSIzMTYuMTI1IiB5Mj0iMzIwLjEyNSIvPjxsaW5lIHN0eWxlPSJzdHJva2U6IzE4MTgxODtzdHJva2Utd2lkdGg6MS4wO3N0cm9rZS1kYXNoYXJyYXk6Mi4wLDIuMDsiIHgxPSIxOTEiIHgyPSI2MjgiIHkxPSIzMTYuMTI1IiB5Mj0iMzE2LjEyNSIvPjx0ZXh0IGZpbGw9IiMwMDAwMDAiIGZvbnQtZmFtaWx5PSJzYW5zLXNlcmlmIiBmb250LXNpemU9IjEzIiBsZW5ndGhBZGp1c3Q9InNwYWNpbmciIHRleHRMZW5ndGg9IjEyMSIgeD0iMjA4IiB5PSIzMTIuNSI+QWN0dWFsaXphciB0YWJsZXJvPC90ZXh0Pjxwb2x5Z29uIGZpbGw9IiMxODE4MTgiIHBvaW50cz0iNjE3LDM0MC4wMzkxLDYyNywzNDQuMDM5MSw2MTcsMzQ4LjAzOTEsNjIxLDM0NC4wMzkxIiBzdHlsZT0ic3Ryb2tlOiMxODE4MTg7c3Ryb2tlLXdpZHRoOjEuMDsiLz48bGluZSBzdHlsZT0ic3Ryb2tlOiMxODE4MTg7c3Ryb2tlLXdpZHRoOjEuMDsiIHgxPSIxOTEiIHgyPSI2MjMiIHkxPSIzNDQuMDM5MSIgeTI9IjM0NC4wMzkxIi8+PHRleHQgZmlsbD0iIzAwMDAwMCIgZm9udC1mYW1pbHk9InNhbnMtc2VyaWYiIGZvbnQtc2l6ZT0iMTMiIGxlbmd0aEFkanVzdD0ic3BhY2luZyIgdGV4dExlbmd0aD0iMTQxIiB4PSIxOTgiIHk9IjM0MC40MTQxIj5WZXJpZmljYXIgc2kgaGF5IG1pbmE8L3RleHQ+PGxpbmUgc3R5bGU9InN0cm9rZTojMTgxODE4O3N0cm9rZS13aWR0aDoxLjA7IiB4MT0iMTkyIiB4Mj0iMjAyIiB5MT0iMzcxLjk1MzEiIHkyPSIzNjcuOTUzMSIvPjxsaW5lIHN0eWxlPSJzdHJva2U6IzE4MTgxODtzdHJva2Utd2lkdGg6MS4wOyIgeDE9IjE5MiIgeDI9IjIwMiIgeTE9IjM3MS45NTMxIiB5Mj0iMzc1Ljk1MzEiLz48bGluZSBzdHlsZT0ic3Ryb2tlOiMxODE4MTg7c3Ryb2tlLXdpZHRoOjEuMDtzdHJva2UtZGFzaGFycmF5OjIuMCwyLjA7IiB4MT0iMTkxIiB4Mj0iNjI4IiB5MT0iMzcxLjk1MzEiIHkyPSIzNzEuOTUzMSIvPjx0ZXh0IGZpbGw9IiMwMDAwMDAiIGZvbnQtZmFtaWx5PSJzYW5zLXNlcmlmIiBmb250LXNpemU9IjEzIiBsZW5ndGhBZGp1c3Q9InNwYWNpbmciIHRleHRMZW5ndGg9IjU0IiB4PSIyMDgiIHk9IjM2OC4zMjgxIj5IYXkgbWluYTwvdGV4dD48bGluZSBzdHlsZT0ic3Ryb2tlOiMxODE4MTg7c3Ryb2tlLXdpZHRoOjEuMDsiIHgxPSIyNyIgeDI9IjM3IiB5MT0iMzk5Ljg2NzIiIHkyPSIzOTUuODY3MiIvPjxsaW5lIHN0eWxlPSJzdHJva2U6IzE4MTgxODtzdHJva2Utd2lkdGg6MS4wOyIgeDE9IjI3IiB4Mj0iMzciIHkxPSIzOTkuODY3MiIgeTI9IjQwMy44NjcyIi8+PGxpbmUgc3R5bGU9InN0cm9rZTojMTgxODE4O3N0cm9rZS13aWR0aDoxLjA7c3Ryb2tlLWRhc2hhcnJheToyLjAsMi4wOyIgeDE9IjI2IiB4Mj0iMTkwIiB5MT0iMzk5Ljg2NzIiIHkyPSIzOTkuODY3MiIvPjx0ZXh0IGZpbGw9IiMwMDAwMDAiIGZvbnQtZmFtaWx5PSJzYW5zLXNlcmlmIiBmb250LXNpemU9IjEzIiBsZW5ndGhBZGp1c3Q9InNwYWNpbmciIHRleHRMZW5ndGg9IjkwIiB4PSI0MyIgeT0iMzk2LjI0MjIiPkp1ZWdvIHBlcmRpZG88L3RleHQ+PGxpbmUgc3R5bGU9InN0cm9rZTojMTgxODE4O3N0cm9rZS13aWR0aDoxLjA7IiB4MT0iOTM2IiB4Mj0iOTI2IiB5MT0iNDI3Ljc4MTMiIHkyPSI0MjMuNzgxMyIvPjxsaW5lIHN0eWxlPSJzdHJva2U6IzE4MTgxODtzdHJva2Utd2lkdGg6MS4wOyIgeDE9IjkzNiIgeDI9IjkyNiIgeTE9IjQyNy43ODEzIiB5Mj0iNDMxLjc4MTMiLz48bGluZSBzdHlsZT0ic3Ryb2tlOiMxODE4MTg7c3Ryb2tlLXdpZHRoOjEuMDtzdHJva2UtZGFzaGFycmF5OjIuMCwyLjA7IiB4MT0iMTkxIiB4Mj0iOTM3IiB5MT0iNDI3Ljc4MTMiIHkyPSI0MjcuNzgxMyIvPjx0ZXh0IGZpbGw9IiMwMDAwMDAiIGZvbnQtZmFtaWx5PSJzYW5zLXNlcmlmIiBmb250LXNpemU9IjEzIiBsZW5ndGhBZGp1c3Q9InNwYWNpbmciIHRleHRMZW5ndGg9IjEyMyIgeD0iMTk4IiB5PSI0MjQuMTU2MyI+RGV0ZW5lciBjcm9uJiMyNDM7bWV0cm88L3RleHQ+PHBvbHlnb24gZmlsbD0iIzE4MTgxOCIgcG9pbnRzPSIxNzksNDUxLjY5NTMsMTg5LDQ1NS42OTUzLDE3OSw0NTkuNjk1MywxODMsNDU1LjY5NTMiIHN0eWxlPSJzdHJva2U6IzE4MTgxODtzdHJva2Utd2lkdGg6MS4wOyIvPjxsaW5lIHN0eWxlPSJzdHJva2U6IzE4MTgxODtzdHJva2Utd2lkdGg6MS4wOyIgeDE9IjI2IiB4Mj0iMTg1IiB5MT0iNDU1LjY5NTMiIHkyPSI0NTUuNjk1MyIvPjx0ZXh0IGZpbGw9IiMwMDAwMDAiIGZvbnQtZmFtaWx5PSJzYW5zLXNlcmlmIiBmb250LXNpemU9IjEzIiBsZW5ndGhBZGp1c3Q9InNwYWNpbmciIHRleHRMZW5ndGg9IjE0MSIgeD0iMzMiIHk9IjQ1Mi4wNzAzIj5NYXJjYXIgY2FzaWxsYSAoeCwgeSk8L3RleHQ+PHBvbHlnb24gZmlsbD0iIzE4MTgxOCIgcG9pbnRzPSI2MTcsNDc5LjYwOTQsNjI3LDQ4My42MDk0LDYxNyw0ODcuNjA5NCw2MjEsNDgzLjYwOTQiIHN0eWxlPSJzdHJva2U6IzE4MTgxODtzdHJva2Utd2lkdGg6MS4wOyIvPjxsaW5lIHN0eWxlPSJzdHJva2U6IzE4MTgxODtzdHJva2Utd2lkdGg6MS4wOyIgeDE9IjE5MSIgeDI9IjYyMyIgeTE9IjQ4My42MDk0IiB5Mj0iNDgzLjYwOTQiLz48dGV4dCBmaWxsPSIjMDAwMDAwIiBmb250LWZhbWlseT0ic2Fucy1zZXJpZiIgZm9udC1zaXplPSIxMyIgbGVuZ3RoQWRqdXN0PSJzcGFjaW5nIiB0ZXh0TGVuZ3RoPSIxNDEiIHg9IjE5OCIgeT0iNDc5Ljk4NDQiPk1hcmNhciBjYXNpbGxhICh4LCB5KTwvdGV4dD48cG9seWdvbiBmaWxsPSIjMTgxODE4IiBwb2ludHM9Ijg0Miw1MDcuNTIzNCw4NTIsNTExLjUyMzQsODQyLDUxNS41MjM0LDg0Niw1MTEuNTIzNCIgc3R5bGU9InN0cm9rZTojMTgxODE4O3N0cm9rZS13aWR0aDoxLjA7Ii8+PGxpbmUgc3R5bGU9InN0cm9rZTojMTgxODE4O3N0cm9rZS13aWR0aDoxLjA7IiB4MT0iNjI5IiB4Mj0iODQ4IiB5MT0iNTExLjUyMzQiIHkyPSI1MTEuNTIzNCIvPjx0ZXh0IGZpbGw9IiMwMDAwMDAiIGZvbnQtZmFtaWx5PSJzYW5zLXNlcmlmIiBmb250LXNpemU9IjEzIiBsZW5ndGhBZGp1c3Q9InNwYWNpbmciIHRleHRMZW5ndGg9Ijk1IiB4PSI2MzYiIHk9IjUwNy44OTg0Ij5NYXJjYXIgY2FzaWxsYTwvdGV4dD48bGluZSBzdHlsZT0ic3Ryb2tlOiMxODE4MTg7c3Ryb2tlLXdpZHRoOjEuMDsiIHgxPSI2MzAiIHgyPSI2NDAiIHkxPSI1MzkuNDM3NSIgeTI9IjUzNS40Mzc1Ii8+PGxpbmUgc3R5bGU9InN0cm9rZTojMTgxODE4O3N0cm9rZS13aWR0aDoxLjA7IiB4MT0iNjMwIiB4Mj0iNjQwIiB5MT0iNTM5LjQzNzUiIHkyPSI1NDMuNDM3NSIvPjxsaW5lIHN0eWxlPSJzdHJva2U6IzE4MTgxODtzdHJva2Utd2lkdGg6MS4wO3N0cm9rZS1kYXNoYXJyYXk6Mi4wLDIuMDsiIHgxPSI2MjkiIHgyPSI4NTMiIHkxPSI1MzkuNDM3NSIgeTI9IjUzOS40Mzc1Ii8+PHRleHQgZmlsbD0iIzAwMDAwMCIgZm9udC1mYW1pbHk9InNhbnMtc2VyaWYiIGZvbnQtc2l6ZT0iMTMiIGxlbmd0aEFkanVzdD0ic3BhY2luZyIgdGV4dExlbmd0aD0iMTAxIiB4PSI2NDYiIHk9IjUzNS44MTI1Ij5DYXNpbGxhIG1hcmNhZGE8L3RleHQ+PGxpbmUgc3R5bGU9InN0cm9rZTojMTgxODE4O3N0cm9rZS13aWR0aDoxLjA7IiB4MT0iMTkyIiB4Mj0iMjAyIiB5MT0iNTY3LjM1MTYiIHkyPSI1NjMuMzUxNiIvPjxsaW5lIHN0eWxlPSJzdHJva2U6IzE4MTgxODtzdHJva2Utd2lkdGg6MS4wOyIgeDE9IjE5MiIgeDI9IjIwMiIgeTE9IjU2Ny4zNTE2IiB5Mj0iNTcxLjM1MTYiLz48bGluZSBzdHlsZT0ic3Ryb2tlOiMxODE4MTg7c3Ryb2tlLXdpZHRoOjEuMDtzdHJva2UtZGFzaGFycmF5OjIuMCwyLjA7IiB4MT0iMTkxIiB4Mj0iNjI4IiB5MT0iNTY3LjM1MTYiIHkyPSI1NjcuMzUxNiIvPjx0ZXh0IGZpbGw9IiMwMDAwMDAiIGZvbnQtZmFtaWx5PSJzYW5zLXNlcmlmIiBmb250LXNpemU9IjEzIiBsZW5ndGhBZGp1c3Q9InNwYWNpbmciIHRleHRMZW5ndGg9IjEyMSIgeD0iMjA4IiB5PSI1NjMuNzI2NiI+QWN0dWFsaXphciB0YWJsZXJvPC90ZXh0Pjxwb2x5Z29uIGZpbGw9IiMxODE4MTgiIHBvaW50cz0iMTc5LDU5MS4yNjU2LDE4OSw1OTUuMjY1NiwxNzksNTk5LjI2NTYsMTgzLDU5NS4yNjU2IiBzdHlsZT0ic3Ryb2tlOiMxODE4MTg7c3Ryb2tlLXdpZHRoOjEuMDsiLz48bGluZSBzdHlsZT0ic3Ryb2tlOiMxODE4MTg7c3Ryb2tlLXdpZHRoOjEuMDsiIHgxPSIyNiIgeDI9IjE4NSIgeTE9IjU5NS4yNjU2IiB5Mj0iNTk1LjI2NTYiLz48dGV4dCBmaWxsPSIjMDAwMDAwIiBmb250LWZhbWlseT0ic2Fucy1zZXJpZiIgZm9udC1zaXplPSIxMyIgbGVuZ3RoQWRqdXN0PSJzcGFjaW5nIiB0ZXh0TGVuZ3RoPSIxMzUiIHg9IjMzIiB5PSI1OTEuNjQwNiI+SGFjZXIgY2xpYyBlbiAoeCwgeSk8L3RleHQ+PHBvbHlnb24gZmlsbD0iIzE4MTgxOCIgcG9pbnRzPSI2MTcsNjE5LjE3OTcsNjI3LDYyMy4xNzk3LDYxNyw2MjcuMTc5Nyw2MjEsNjIzLjE3OTciIHN0eWxlPSJzdHJva2U6IzE4MTgxODtzdHJva2Utd2lkdGg6MS4wOyIvPjxsaW5lIHN0eWxlPSJzdHJva2U6IzE4MTgxODtzdHJva2Utd2lkdGg6MS4wOyIgeDE9IjE5MSIgeDI9IjYyMyIgeTE9IjYyMy4xNzk3IiB5Mj0iNjIzLjE3OTciLz48dGV4dCBmaWxsPSIjMDAwMDAwIiBmb250LWZhbWlseT0ic2Fucy1zZXJpZiIgZm9udC1zaXplPSIxMyIgbGVuZ3RoQWRqdXN0PSJzcGFjaW5nIiB0ZXh0TGVuZ3RoPSIxNDciIHg9IjE5OCIgeT0iNjE5LjU1NDciPlJldmVsYXIgY2FzaWxsYSAoeCwgeSk8L3RleHQ+PHBvbHlnb24gZmlsbD0iIzE4MTgxOCIgcG9pbnRzPSI4NDIsNjQ3LjA5MzgsODUyLDY1MS4wOTM4LDg0Miw2NTUuMDkzOCw4NDYsNjUxLjA5MzgiIHN0eWxlPSJzdHJva2U6IzE4MTgxODtzdHJva2Utd2lkdGg6MS4wOyIvPjxsaW5lIHN0eWxlPSJzdHJva2U6IzE4MTgxODtzdHJva2Utd2lkdGg6MS4wOyIgeDE9IjYyOSIgeDI9Ijg0OCIgeTE9IjY1MS4wOTM4IiB5Mj0iNjUxLjA5MzgiLz48dGV4dCBmaWxsPSIjMDAwMDAwIiBmb250LWZhbWlseT0ic2Fucy1zZXJpZiIgZm9udC1zaXplPSIxMyIgbGVuZ3RoQWRqdXN0PSJzcGFjaW5nIiB0ZXh0TGVuZ3RoPSIyMDEiIHg9IjYzNiIgeT0iNjQ3LjQ2ODgiPk9idGVuZXIgdGlwbyBkZSBjYXNpbGxhICh4LCB5KTwvdGV4dD48cG9seWdvbiBmaWxsPSIjMTgxODE4IiBwb2ludHM9Ijg0Miw2NzUuMDA3OCw4NTIsNjc5LjAwNzgsODQyLDY4My4wMDc4LDg0Niw2NzkuMDA3OCIgc3R5bGU9InN0cm9rZTojMTgxODE4O3N0cm9rZS13aWR0aDoxLjA7Ii8+PGxpbmUgc3R5bGU9InN0cm9rZTojMTgxODE4O3N0cm9rZS13aWR0aDoxLjA7IiB4MT0iNjI5IiB4Mj0iODQ4IiB5MT0iNjc5LjAwNzgiIHkyPSI2NzkuMDA3OCIvPjx0ZXh0IGZpbGw9IiMwMDAwMDAiIGZvbnQtZmFtaWx5PSJzYW5zLXNlcmlmIiBmb250LXNpemU9IjEzIiBsZW5ndGhBZGp1c3Q9InNwYWNpbmciIHRleHRMZW5ndGg9IjExNiIgeD0iNjM2IiB5PSI2NzUuMzgyOCI+UmV2ZWxhciBjb250ZW5pZG88L3RleHQ+PGxpbmUgc3R5bGU9InN0cm9rZTojMTgxODE4O3N0cm9rZS13aWR0aDoxLjA7IiB4MT0iNjMwIiB4Mj0iNjQwIiB5MT0iNzA2LjkyMTkiIHkyPSI3MDIuOTIxOSIvPjxsaW5lIHN0eWxlPSJzdHJva2U6IzE4MTgxODtzdHJva2Utd2lkdGg6MS4wOyIgeDE9IjYzMCIgeDI9IjY0MCIgeTE9IjcwNi45MjE5IiB5Mj0iNzEwLjkyMTkiLz48bGluZSBzdHlsZT0ic3Ryb2tlOiMxODE4MTg7c3Ryb2tlLXdpZHRoOjEuMDtzdHJva2UtZGFzaGFycmF5OjIuMCwyLjA7IiB4MT0iNjI5IiB4Mj0iODUzIiB5MT0iNzA2LjkyMTkiIHkyPSI3MDYuOTIxOSIvPjx0ZXh0IGZpbGw9IiMwMDAwMDAiIGZvbnQtZmFtaWx5PSJzYW5zLXNlcmlmIiBmb250LXNpemU9IjEzIiBsZW5ndGhBZGp1c3Q9InNwYWNpbmciIHRleHRMZW5ndGg9IjEyMyIgeD0iNjQ2IiB5PSI3MDMuMjk2OSI+Q29udGVuaWRvIHJldmVsYWRvPC90ZXh0PjxsaW5lIHN0eWxlPSJzdHJva2U6IzE4MTgxODtzdHJva2Utd2lkdGg6MS4wOyIgeDE9IjE5MiIgeDI9IjIwMiIgeTE9IjczNC44MzU5IiB5Mj0iNzMwLjgzNTkiLz48bGluZSBzdHlsZT0ic3Ryb2tlOiMxODE4MTg7c3Ryb2tlLXdpZHRoOjEuMDsiIHgxPSIxOTIiIHgyPSIyMDIiIHkxPSI3MzQuODM1OSIgeTI9IjczOC44MzU5Ii8+PGxpbmUgc3R5bGU9InN0cm9rZTojMTgxODE4O3N0cm9rZS13aWR0aDoxLjA7c3Ryb2tlLWRhc2hhcnJheToyLjAsMi4wOyIgeDE9IjE5MSIgeDI9IjYyOCIgeTE9IjczNC44MzU5IiB5Mj0iNzM0LjgzNTkiLz48dGV4dCBmaWxsPSIjMDAwMDAwIiBmb250LWZhbWlseT0ic2Fucy1zZXJpZiIgZm9udC1zaXplPSIxMyIgbGVuZ3RoQWRqdXN0PSJzcGFjaW5nIiB0ZXh0TGVuZ3RoPSIxMjEiIHg9IjIwOCIgeT0iNzMxLjIxMDkiPkFjdHVhbGl6YXIgdGFibGVybzwvdGV4dD48cG9seWdvbiBmaWxsPSIjMTgxODE4IiBwb2ludHM9IjYxNyw3NTguNzUsNjI3LDc2Mi43NSw2MTcsNzY2Ljc1LDYyMSw3NjIuNzUiIHN0eWxlPSJzdHJva2U6IzE4MTgxODtzdHJva2Utd2lkdGg6MS4wOyIvPjxsaW5lIHN0eWxlPSJzdHJva2U6IzE4MTgxODtzdHJva2Utd2lkdGg6MS4wOyIgeDE9IjE5MSIgeDI9IjYyMyIgeTE9Ijc2Mi43NSIgeTI9Ijc2Mi43NSIvPjx0ZXh0IGZpbGw9IiMwMDAwMDAiIGZvbnQtZmFtaWx5PSJzYW5zLXNlcmlmIiBmb250LXNpemU9IjEzIiBsZW5ndGhBZGp1c3Q9InNwYWNpbmciIHRleHRMZW5ndGg9IjQxNCIgeD0iMTk4IiB5PSI3NTkuMTI1Ij5WZXJpZmljYXIgc2kgdG9kYXMgbGFzIGNhc2lsbGFzIG5vIG1pbmFkYXMgaGFuIHNpZG8gcmV2ZWxhZGFzPC90ZXh0PjxsaW5lIHN0eWxlPSJzdHJva2U6IzE4MTgxODtzdHJva2Utd2lkdGg6MS4wOyIgeDE9IjE5MiIgeDI9IjIwMiIgeTE9Ijc5MC42NjQxIiB5Mj0iNzg2LjY2NDEiLz48bGluZSBzdHlsZT0ic3Ryb2tlOiMxODE4MTg7c3Ryb2tlLXdpZHRoOjEuMDsiIHgxPSIxOTIiIHgyPSIyMDIiIHkxPSI3OTAuNjY0MSIgeTI9Ijc5NC42NjQxIi8+PGxpbmUgc3R5bGU9InN0cm9rZTojMTgxODE4O3N0cm9rZS13aWR0aDoxLjA7c3Ryb2tlLWRhc2hhcnJheToyLjAsMi4wOyIgeDE9IjE5MSIgeDI9IjYyOCIgeTE9Ijc5MC42NjQxIiB5Mj0iNzkwLjY2NDEiLz48dGV4dCBmaWxsPSIjMDAwMDAwIiBmb250LWZhbWlseT0ic2Fucy1zZXJpZiIgZm9udC1zaXplPSIxMyIgbGVuZ3RoQWRqdXN0PSJzcGFjaW5nIiB0ZXh0TGVuZ3RoPSIxOTAiIHg9IjIwOCIgeT0iNzg3LjAzOTEiPlRvZGFzIGxhcyBjYXNpbGxhcyByZXZlbGFkYXM8L3RleHQ+PGxpbmUgc3R5bGU9InN0cm9rZTojMTgxODE4O3N0cm9rZS13aWR0aDoxLjA7IiB4MT0iMjciIHgyPSIzNyIgeTE9IjgxOC41NzgxIiB5Mj0iODE0LjU3ODEiLz48bGluZSBzdHlsZT0ic3Ryb2tlOiMxODE4MTg7c3Ryb2tlLXdpZHRoOjEuMDsiIHgxPSIyNyIgeDI9IjM3IiB5MT0iODE4LjU3ODEiIHkyPSI4MjIuNTc4MSIvPjxsaW5lIHN0eWxlPSJzdHJva2U6IzE4MTgxODtzdHJva2Utd2lkdGg6MS4wO3N0cm9rZS1kYXNoYXJyYXk6Mi4wLDIuMDsiIHgxPSIyNiIgeDI9IjE5MCIgeTE9IjgxOC41NzgxIiB5Mj0iODE4LjU3ODEiLz48dGV4dCBmaWxsPSIjMDAwMDAwIiBmb250LWZhbWlseT0ic2Fucy1zZXJpZiIgZm9udC1zaXplPSIxMyIgbGVuZ3RoQWRqdXN0PSJzcGFjaW5nIiB0ZXh0TGVuZ3RoPSI4NCIgeD0iNDMiIHk9IjgxNC45NTMxIj5KdWVnbyBnYW5hZG88L3RleHQ+PGxpbmUgc3R5bGU9InN0cm9rZTojMTgxODE4O3N0cm9rZS13aWR0aDoxLjA7IiB4MT0iOTM2IiB4Mj0iOTI2IiB5MT0iODQ2LjQ5MjIiIHkyPSI4NDIuNDkyMiIvPjxsaW5lIHN0eWxlPSJzdHJva2U6IzE4MTgxODtzdHJva2Utd2lkdGg6MS4wOyIgeDE9IjkzNiIgeDI9IjkyNiIgeTE9Ijg0Ni40OTIyIiB5Mj0iODUwLjQ5MjIiLz48bGluZSBzdHlsZT0ic3Ryb2tlOiMxODE4MTg7c3Ryb2tlLXdpZHRoOjEuMDtzdHJva2UtZGFzaGFycmF5OjIuMCwyLjA7IiB4MT0iMTkxIiB4Mj0iOTM3IiB5MT0iODQ2LjQ5MjIiIHkyPSI4NDYuNDkyMiIvPjx0ZXh0IGZpbGw9IiMwMDAwMDAiIGZvbnQtZmFtaWx5PSJzYW5zLXNlcmlmIiBmb250LXNpemU9IjEzIiBsZW5ndGhBZGp1c3Q9InNwYWNpbmciIHRleHRMZW5ndGg9IjEyMyIgeD0iMTk4IiB5PSI4NDIuODY3MiI+RGV0ZW5lciBjcm9uJiMyNDM7bWV0cm88L3RleHQ+PCEtLVNSQz1beExIQlJpOG01RHB4NTZSTklrSzJNSTExWTBmTDBuQTRSZ2s3T3kxTGkyRjdMQU5Od1g1d2lWZTcxRkFYZHNxTnNOWGN0aXB4QTlzS2hYWWRVMzZGUFpXN2dIWFhFTjI1RVh3dXh5VEhCSjJPemNWM01ZR1BGcU9ER0RwVzRleWRxVm12ZDJ1Y29HSzNzTUlCV2FmYWVwcGl3NWVDVFdNMUJVREc4MVNaV01MNmZLM01FZUkyUEhhV1BuVEFtU01NQWVzVWt1STJBcVk1WjZxVFAybm1qdFRmNEUwbnJyYjB1WFMzZTBsT0FCbnZlQXNldlljVmZPUHZvZDhnSV9KUnZ1U0JNMlNmZm9vZl8zREVBTlEzUUNtXzBnOEhhWjYyQVNTdFJ0VHVWemxRbmVvLXFpbnVrM2FVOTF3dGVIbUl1RWJJS1F3aEF2T0I0LUtSYWNEcnRHN2JCMU44R3haUnhQTTdVUzJuajBmREY5T3BuNGdWVlE5c2FCN3R6WEtTd3B6SG9MUUNRN1IxeTBSc1Rlbk5CNE83TWdNbWVQaUQxNHc0U29mSnFyaWppTm02Ry1lY00zdzNuYk42ODRickNNclRyWWxnemRCRVI1Z0FWenFRU1dlX3R5Wl9iVnhYSWZMOERQcGZwdFRHTzJ4aUdQaHQzTjFERVlOSF91SnNBNGNydDRid3pTQk5tRTZOMV91NV0tLT48L2c+PC9zdmc+;" vertex="1" parent="WIyWlLk6GJQsqaUBKTNV-1">
            <mxGeometry x="20" y="1754" width="1101" height="898" as="geometry" />
          </mxCell>
        </UserObject>
        <UserObject label="" plantUmlData="{&#xa;  &quot;data&quot;: &quot;@startuml\n\n!define DATABASE [&lt;&lt;Database&gt;&gt;]\n\nnode \&quot;Servidor de Juego\&quot; {\n  component \&quot;Aplicación Web\&quot; as App\n  [Base de Datos] as DB\n}\n\ndatabase DB {\n  folder \&quot;Tableros\&quot;\n}\n\nnode \&quot;Cliente Web\&quot; {\n  [Navegador Web] as Browser\n}\n\nApp -[hidden]-&gt; DB: Acceso a datos\nBrowser --&gt; App: Interfaz de usuario\n\n@enduml\n&quot;,&#xa;  &quot;format&quot;: &quot;svg&quot;&#xa;}" id="IKGjknTljFA5LxFjr2B9-108">
          <mxCell style="shape=image;noLabel=1;verticalAlign=top;aspect=fixed;imageAspect=0;image=data:image/svg+xml,PD94bWwgdmVyc2lvbj0iMS4wIiBlbmNvZGluZz0idXMtYXNjaWkiIHN0YW5kYWxvbmU9Im5vIj8+PHN2ZyB4bWxucz0iaHR0cDovL3d3dy53My5vcmcvMjAwMC9zdmciIHhtbG5zOnhsaW5rPSJodHRwOi8vd3d3LnczLm9yZy8xOTk5L3hsaW5rIiBjb250ZW50U3R5bGVUeXBlPSJ0ZXh0L2NzcyIgaGVpZ2h0PSI0ODZweCIgcHJlc2VydmVBc3BlY3RSYXRpbz0ibm9uZSIgc3R5bGU9IndpZHRoOjI1MHB4O2hlaWdodDo0ODZweDtiYWNrZ3JvdW5kOiNGRkZGRkY7IiB2ZXJzaW9uPSIxLjEiIHZpZXdCb3g9IjAgMCAyNTAgNDg2IiB3aWR0aD0iMjUwcHgiIHpvb21BbmRQYW49Im1hZ25pZnkiPjxkZWZzLz48Zz48IS0tY2x1c3RlciBTZXJ2aWRvciBkZSBKdWVnby0tPjxnIGlkPSJjbHVzdGVyX1NlcnZpZG9yIGRlIEp1ZWdvIj48cG9seWdvbiBmaWxsPSJub25lIiBwb2ludHM9IjE2LDE2MiwyNiwxNTIsMjMzLDE1MiwyMzMsNDU5LDIyMyw0NjksMTYsNDY5LDE2LDE2MiIgc3R5bGU9InN0cm9rZTojMTgxODE4O3N0cm9rZS13aWR0aDoxLjA7Ii8+PGxpbmUgc3R5bGU9InN0cm9rZTojMTgxODE4O3N0cm9rZS13aWR0aDoxLjA7IiB4MT0iMjIzIiB4Mj0iMjMzIiB5MT0iMTYyIiB5Mj0iMTUyIi8+PGxpbmUgc3R5bGU9InN0cm9rZTojMTgxODE4O3N0cm9rZS13aWR0aDoxLjA7IiB4MT0iMTYiIHgyPSIyMjMiIHkxPSIxNjIiIHkyPSIxNjIiLz48bGluZSBzdHlsZT0ic3Ryb2tlOiMxODE4MTg7c3Ryb2tlLXdpZHRoOjEuMDsiIHgxPSIyMjMiIHgyPSIyMjMiIHkxPSIxNjIiIHkyPSI0NjkiLz48dGV4dCBmaWxsPSIjMDAwMDAwIiBmb250LWZhbWlseT0ic2Fucy1zZXJpZiIgZm9udC1zaXplPSIxNCIgZm9udC13ZWlnaHQ9ImJvbGQiIGxlbmd0aEFkanVzdD0ic3BhY2luZyIgdGV4dExlbmd0aD0iMTIwIiB4PSI2MC41IiB5PSIxNzguMjM0NCI+U2Vydmlkb3IgZGUgSnVlZ288L3RleHQ+PC9nPjwhLS1jbHVzdGVyIERCLS0+PGcgaWQ9ImNsdXN0ZXJfREIiPjxwYXRoIGQ9Ik00OCwzMTQgQzQ4LDMwNCAxMjQuNSwzMDQgMTI0LjUsMzA0IEMxMjQuNSwzMDQgMjAxLDMwNCAyMDEsMzE0IEwyMDEsNDI3IEMyMDEsNDM3IDEyNC41LDQzNyAxMjQuNSw0MzcgQzEyNC41LDQzNyA0OCw0MzcgNDgsNDI3IEw0OCwzMTQgIiBmaWxsPSJub25lIiBzdHlsZT0ic3Ryb2tlOiMxODE4MTg7c3Ryb2tlLXdpZHRoOjEuMDsiLz48cGF0aCBkPSJNNDgsMzE0IEM0OCwzMjQgMTI0LjUsMzI0IDEyNC41LDMyNCBDMTI0LjUsMzI0IDIwMSwzMjQgMjAxLDMxNCAiIGZpbGw9Im5vbmUiIHN0eWxlPSJzdHJva2U6IzE4MTgxODtzdHJva2Utd2lkdGg6MS4wOyIvPjx0ZXh0IGZpbGw9IiMwMDAwMDAiIGZvbnQtZmFtaWx5PSJzYW5zLXNlcmlmIiBmb250LXNpemU9IjE0IiBmb250LXdlaWdodD0iYm9sZCIgbGVuZ3RoQWRqdXN0PSJzcGFjaW5nIiB0ZXh0TGVuZ3RoPSI5MSIgeD0iNzkiIHk9IjMzOS4yMzQ0Ij5CYXNlIGRlIERhdG9zPC90ZXh0PjwvZz48IS0tY2x1c3RlciBDbGllbnRlIFdlYi0tPjxnIGlkPSJjbHVzdGVyX0NsaWVudGUgV2ViIj48cG9seWdvbiBmaWxsPSJub25lIiBwb2ludHM9IjE5LDE2LDI5LDYsMTgzLDYsMTgzLDk1LDE3MywxMDUsMTksMTA1LDE5LDE2IiBzdHlsZT0ic3Ryb2tlOiMxODE4MTg7c3Ryb2tlLXdpZHRoOjEuMDsiLz48bGluZSBzdHlsZT0ic3Ryb2tlOiMxODE4MTg7c3Ryb2tlLXdpZHRoOjEuMDsiIHgxPSIxNzMiIHgyPSIxODMiIHkxPSIxNiIgeTI9IjYiLz48bGluZSBzdHlsZT0ic3Ryb2tlOiMxODE4MTg7c3Ryb2tlLXdpZHRoOjEuMDsiIHgxPSIxOSIgeDI9IjE3MyIgeTE9IjE2IiB5Mj0iMTYiLz48bGluZSBzdHlsZT0ic3Ryb2tlOiMxODE4MTg7c3Ryb2tlLXdpZHRoOjEuMDsiIHgxPSIxNzMiIHgyPSIxNzMiIHkxPSIxNiIgeTI9IjEwNSIvPjx0ZXh0IGZpbGw9IiMwMDAwMDAiIGZvbnQtZmFtaWx5PSJzYW5zLXNlcmlmIiBmb250LXNpemU9IjE0IiBmb250LXdlaWdodD0iYm9sZCIgbGVuZ3RoQWRqdXN0PSJzcGFjaW5nIiB0ZXh0TGVuZ3RoPSI3NyIgeD0iNTguNSIgeT0iMzIuMjM0NCI+Q2xpZW50ZSBXZWI8L3RleHQ+PC9nPjwhLS1lbnRpdHkgQXBwLS0+PGcgaWQ9ImVsZW1fQXBwIj48cmVjdCBmaWxsPSIjRjFGMUYxIiBoZWlnaHQ9IjQ0Ljk4NDQiIHJ4PSIyLjUiIHJ5PSIyLjUiIHN0eWxlPSJzdHJva2U6IzE4MTgxODtzdHJva2Utd2lkdGg6MC41OyIgd2lkdGg9IjEzOCIgeD0iMzIiIHk9IjE5MCIvPjxyZWN0IGZpbGw9IiNGMUYxRjEiIGhlaWdodD0iMTAiIHN0eWxlPSJzdHJva2U6IzE4MTgxODtzdHJva2Utd2lkdGg6MC41OyIgd2lkdGg9IjE1IiB4PSIxNTAiIHk9IjE5NSIvPjxyZWN0IGZpbGw9IiNGMUYxRjEiIGhlaWdodD0iMiIgc3R5bGU9InN0cm9rZTojMTgxODE4O3N0cm9rZS13aWR0aDowLjU7IiB3aWR0aD0iNCIgeD0iMTQ4IiB5PSIxOTciLz48cmVjdCBmaWxsPSIjRjFGMUYxIiBoZWlnaHQ9IjIiIHN0eWxlPSJzdHJva2U6IzE4MTgxODtzdHJva2Utd2lkdGg6MC41OyIgd2lkdGg9IjQiIHg9IjE0OCIgeT0iMjAxIi8+PHRleHQgZmlsbD0iIzAwMDAwMCIgZm9udC1mYW1pbHk9InNhbnMtc2VyaWYiIGZvbnQtc2l6ZT0iMTQiIGxlbmd0aEFkanVzdD0ic3BhY2luZyIgdGV4dExlbmd0aD0iOTgiIHg9IjQ3IiB5PSIyMjMuMjM0NCI+QXBsaWNhY2kmIzI0MztuIFdlYjwvdGV4dD48L2c+PCEtLWVudGl0eSBUYWJsZXJvcy0tPjxnIGlkPSJlbGVtX1RhYmxlcm9zIj48cGF0aCBkPSJNOTMuNSwzNjAgTDEzNC41LDM2MCBBMy43NSwzLjc1IDAgMCAxIDEzNywzNjIuNSBMMTQ0LDM4MSBMMTc0LjUsMzgxIEEyLjUsMi41IDAgMCAxIDE3NywzODMuNSBMMTc3LDQxMC40ODQ0IEEyLjUsMi41IDAgMCAxIDE3NC41LDQxMi45ODQ0IEw5My41LDQxMi45ODQ0IEEyLjUsMi41IDAgMCAxIDkxLDQxMC40ODQ0IEw5MSwzNjIuNSBBMi41LDIuNSAwIDAgMSA5My41LDM2MCAiIGZpbGw9IiNGMUYxRjEiIHN0eWxlPSJzdHJva2U6IzE4MTgxODtzdHJva2Utd2lkdGg6MC41OyIvPjxsaW5lIHN0eWxlPSJzdHJva2U6IzE4MTgxODtzdHJva2Utd2lkdGg6MC41OyIgeDE9IjkxIiB4Mj0iMTQ0IiB5MT0iMzgxIiB5Mj0iMzgxIi8+PHRleHQgZmlsbD0iIzAwMDAwMCIgZm9udC1mYW1pbHk9InNhbnMtc2VyaWYiIGZvbnQtc2l6ZT0iMTQiIGxlbmd0aEFkanVzdD0ic3BhY2luZyIgdGV4dExlbmd0aD0iNTYiIHg9IjEwMSIgeT0iNDAxLjIzNDQiPlRhYmxlcm9zPC90ZXh0PjwvZz48IS0tZW50aXR5IEJyb3dzZXItLT48ZyBpZD0iZWxlbV9Ccm93c2VyIj48cmVjdCBmaWxsPSIjRjFGMUYxIiBoZWlnaHQ9IjQ0Ljk4NDQiIHJ4PSIyLjUiIHJ5PSIyLjUiIHN0eWxlPSJzdHJva2U6IzE4MTgxODtzdHJva2Utd2lkdGg6MC41OyIgd2lkdGg9IjEzMSIgeD0iMzUuNSIgeT0iNDQiLz48cmVjdCBmaWxsPSIjRjFGMUYxIiBoZWlnaHQ9IjEwIiBzdHlsZT0ic3Ryb2tlOiMxODE4MTg7c3Ryb2tlLXdpZHRoOjAuNTsiIHdpZHRoPSIxNSIgeD0iMTQ2LjUiIHk9IjQ5Ii8+PHJlY3QgZmlsbD0iI0YxRjFGMSIgaGVpZ2h0PSIyIiBzdHlsZT0ic3Ryb2tlOiMxODE4MTg7c3Ryb2tlLXdpZHRoOjAuNTsiIHdpZHRoPSI0IiB4PSIxNDQuNSIgeT0iNTEiLz48cmVjdCBmaWxsPSIjRjFGMUYxIiBoZWlnaHQ9IjIiIHN0eWxlPSJzdHJva2U6IzE4MTgxODtzdHJva2Utd2lkdGg6MC41OyIgd2lkdGg9IjQiIHg9IjE0NC41IiB5PSI1NSIvPjx0ZXh0IGZpbGw9IiMwMDAwMDAiIGZvbnQtZmFtaWx5PSJzYW5zLXNlcmlmIiBmb250LXNpemU9IjE0IiBsZW5ndGhBZGp1c3Q9InNwYWNpbmciIHRleHRMZW5ndGg9IjkxIiB4PSI1MC41IiB5PSI3Ny4yMzQ0Ij5OYXZlZ2Fkb3IgV2ViPC90ZXh0PjwvZz48IS0tbGluayBBcHAgdG8gREItLT48IS0tbGluayBCcm93c2VyIHRvIEFwcC0tPjxnIGlkPSJsaW5rX0Jyb3dzZXJfQXBwIj48cGF0aCBkPSJNMTAxLDg5LjA2IEMxMDEsMTE0LjUxIDEwMSwxNTYuODYgMTAxLDE4NC40OCAiIGZpbGw9Im5vbmUiIGlkPSJCcm93c2VyLXRvLUFwcCIgc3R5bGU9InN0cm9rZTojMTgxODE4O3N0cm9rZS13aWR0aDoxLjA7Ii8+PHBvbHlnb24gZmlsbD0iIzE4MTgxOCIgcG9pbnRzPSIxMDEsMTg5Ljc5LDEwNSwxODAuNzksMTAxLDE4NC43OSw5NywxODAuNzksMTAxLDE4OS43OSIgc3R5bGU9InN0cm9rZTojMTgxODE4O3N0cm9rZS13aWR0aDoxLjA7Ii8+PHRleHQgZmlsbD0iIzAwMDAwMCIgZm9udC1mYW1pbHk9InNhbnMtc2VyaWYiIGZvbnQtc2l6ZT0iMTMiIGxlbmd0aEFkanVzdD0ic3BhY2luZyIgdGV4dExlbmd0aD0iMTI5IiB4PSIxMDIiIHk9IjEzNC4yODkxIj5JbnRlcmZheiBkZSB1c3VhcmlvPC90ZXh0PjwvZz48IS0tU1JDPVtCT3VuUmlDbTM0THRkVTlOa295RzEwUmFrYUN4VDRjMDNlTzdNZzlKMFF2ZUk3NEFqRVlmVWVIVWg1SUlhVUpkVV95WHkxbUpldFQ3cnhkMzR1UnpsZ1NwSkxJdVJLVFphV0k2Rk4yLW4yMFBFaG5pVjFBQlJtRHUtTFdiU0poM2tkTTlkZHB5LXFydXV5YzIyam93UWNaZWI1S1ZiSWpiaDhVLUNwXzZYQmo3bm9qamJZTG1YWnRJajcyTU9jbGV2ZHpTZWJodUhneFB1UEtrVkE5UUlOVE5ROVZiaXQya0pvZjZDeHA3NDNZREpRazI3UHB0TjBJNEs2a09VbmdEZFpNLW14Rm95cW5WalViTURpZkhfVzQwXS0tPjwvZz48L3N2Zz4=;" vertex="1" parent="WIyWlLk6GJQsqaUBKTNV-1">
            <mxGeometry x="134" y="2720" width="250" height="486" as="geometry" />
          </mxCell>
        </UserObject>
        <mxCell id="IKGjknTljFA5LxFjr2B9-109" value="ClienteWeb" style="whiteSpace=wrap;strokeWidth=2;verticalAlign=top;" vertex="1" parent="WIyWlLk6GJQsqaUBKTNV-1">
          <mxGeometry x="609" y="2720" width="200" height="85" as="geometry" />
        </mxCell>
        <mxCell id="IKGjknTljFA5LxFjr2B9-110" value="Navegador Web" style="whiteSpace=wrap;strokeWidth=2;" vertex="1" parent="WIyWlLk6GJQsqaUBKTNV-1">
          <mxGeometry x="644" y="2745" width="130" height="35" as="geometry" />
        </mxCell>
        <mxCell id="IKGjknTljFA5LxFjr2B9-111" value="ServidorJuego" style="whiteSpace=wrap;strokeWidth=2;verticalAlign=top;" vertex="1" parent="WIyWlLk6GJQsqaUBKTNV-1">
          <mxGeometry x="592" y="2855" width="235" height="329" as="geometry" />
        </mxCell>
        <mxCell id="IKGjknTljFA5LxFjr2B9-112" value="AplicacionWeb" style="whiteSpace=wrap;strokeWidth=2;verticalAlign=top;" vertex="1" parent="WIyWlLk6GJQsqaUBKTNV-1">
          <mxGeometry x="612" y="2880" width="195" height="175" as="geometry" />
        </mxCell>
        <mxCell id="IKGjknTljFA5LxFjr2B9-113" value="Base de Datos" style="whiteSpace=wrap;strokeWidth=2;" vertex="1" parent="WIyWlLk6GJQsqaUBKTNV-1">
          <mxGeometry x="650" y="3124" width="120" height="35" as="geometry" />
        </mxCell>
        <mxCell id="IKGjknTljFA5LxFjr2B9-114" value="Aplicación Web" style="ellipse;aspect=fixed;strokeWidth=2;whiteSpace=wrap;" vertex="1" parent="WIyWlLk6GJQsqaUBKTNV-1">
          <mxGeometry x="647" y="2905" width="125" height="125" as="geometry" />
        </mxCell>
        <mxCell id="IKGjknTljFA5LxFjr2B9-115" value="hidden" style="curved=1;startArrow=none;endArrow=block;exitX=0.5;exitY=0.996;entryX=0.49583333333333335;entryY=0;rounded=0;" edge="1" parent="WIyWlLk6GJQsqaUBKTNV-1" source="IKGjknTljFA5LxFjr2B9-114" target="IKGjknTljFA5LxFjr2B9-113">
          <mxGeometry relative="1" as="geometry">
            <Array as="points" />
          </mxGeometry>
        </mxCell>
        <mxCell id="IKGjknTljFA5LxFjr2B9-116" value="" style="curved=1;startArrow=none;endArrow=block;exitX=0.5038461538461538;exitY=0.9857142857142858;entryX=0.5;entryY=-0.004;rounded=0;" edge="1" parent="WIyWlLk6GJQsqaUBKTNV-1" source="IKGjknTljFA5LxFjr2B9-110" target="IKGjknTljFA5LxFjr2B9-114">
          <mxGeometry relative="1" as="geometry">
            <Array as="points" />
          </mxGeometry>
        </mxCell>
      </root>
    </mxGraphModel>
  </diagram>
</mxfile>
